<?xml version="1.0" encoding="UTF-8"?>
<svg width="153px" height="179px" viewBox="0 0 153 179" version="1.1" xmlns="http://www.w3.org/2000/svg" xmlns:xlink="http://www.w3.org/1999/xlink">
    <!-- Generator: Sketch 59 (86127) - https://sketch.com -->
    <title>logo</title>
    <desc>Created with Sketch.</desc>
    <g id="Page-1" stroke="none" stroke-width="1" fill="none" fill-rule="evenodd">
        <g id="Desktop-HD" transform="translate(-121.000000, -142.000000)" fill="#000000" fill-rule="nonzero">
            <g id="Header" transform="translate(-400.000000, 0.000000)">
                <g id="Nav-Bar-" transform="translate(0.000000, 139.000000)">
                    <g id="logo" transform="translate(521.000000, 3.000000)">
                        <path d="M100.758925,41.516316 C99.5823129,38.6936185 87.8036271,37 87.8036271,37 C87.8036271,37 84.4015004,44.3390135 91.59726,49.5598748 C98.7930195,54.7807361 101.935538,44.3390135 100.758925,41.516316 Z" id="Path"></path>
                        <path d="M106.555801,62.3654185 C100.598939,58.7218992 103.713836,43.7285372 104.660436,43.0267393 C105.607035,42.3249415 122.39672,55.6389214 120.906422,59.2824406 C119.416124,62.9259599 112.512662,66.0111799 106.555801,62.3654185 Z" id="Path"></path>
                        <path d="M140.942148,82.9231444 C127.15107,89.2460041 110.297785,65.636464 112.138675,66.1985959 C116.983828,67.0417938 122.693708,61 122.693708,61 C122.693708,61 142.194667,63.9523168 140.942148,82.9231444 Z" id="Path"></path>
                        <path d="M114,72 C114,72 138.504961,105.947457 148.808184,101.618587 C154.934424,94.4976175 150.392095,90.5328368 150.200511,89.4718391 C150.008927,88.4108415 149.708184,86.9075753 141.151497,83.4230357 C129.315601,90.2960668 114,72 114,72 Z" id="Path"></path>
                        <path d="M111,65 C111,65 112.91828,68.7145149 114.152557,71.8006596 C140.734443,110.539017 149.641841,103.437542 149.641841,103.437542 C149.641841,103.437542 153.204361,126.834306 137.858118,124.884576 C122.511875,122.934846 111,65 111,65 Z" id="Path"></path>
                        <path d="M109.246792,64.6460618 C105.709618,65.0706456 102.951711,59 102.951711,59 C102.951711,59 87.3446128,121.951331 99.8607656,132.538826 C110.065239,136.351047 127.886064,139.596403 137,127.45737 C117.546634,123.929711 110.200196,69.8675398 109.246792,64.6460618 Z" id="Path"></path>
                        <path d="M102,51 C102,51 100.810377,57.1192302 102,58.237102 C86.4760673,128.383557 97.9147545,132.995896 97.9147545,132.995896 C97.9147545,132.995896 82.1184721,133.275364 78.3055764,129.221961 C75.7171648,129.919513 72.8585824,129.780897 70,128.663025 C73.0198134,121.329786 102,51 102,51 Z" id="Path"></path>
                        <path d="M87,47.9012838 C82.890411,43.9608314 86.2964384,35.3774002 86.2964384,35.3774002 C86.2964384,35.3774002 77.6849315,25.5262692 47,30.3111042 C50.5594521,34.2515567 64.8060274,56.9080322 87,47.9012838 Z" id="Path"></path>
                        <path d="M45.3892131,30 C48.2936204,34.5490385 53,39.282313 53,39.282313 C53,39.282313 39.4409338,42.6940918 31,34.6400192 C37.3622459,31.9902043 38.2499497,30.6664341 45.3892131,30 Z" id="Path"></path>
                        <path d="M71,50.5300266 C71,50.5300266 59.8181818,46.6556481 53.4101818,40.0603488 C40.7272727,44.9952001 29,36 29,36 C29,36 19.0465455,38.2139306 14,45.6859465 C20.6807273,65.6135359 71,50.5300266 71,50.5300266 Z" id="Path"></path>
                        <path d="M76,51.2291052 C76,51.2291052 73.5461074,51.4761148 72.3180704,50.6490737 C17.1065764,69.532076 12.0613731,46 12.0613731,46 C12.0613731,46 -1.02605431,53.5448202 0.0645646421,65.6747563 C37.1477903,78.2193157 76,51.2291052 76,51.2291052 Z" id="Path"></path>
                        <path d="M0,67.702 C0,67.702 5.38416283,89.2165 16.0237225,94 C18.7518148,94 24.7536177,94 24.7536177,94 C24.7536177,94 43.5774541,84.298 45.0768136,80.851 C50.6312094,77.5795 60.0813209,76.1755 66.9015515,69.4075 C75.6314466,67.84375 87.4997391,54.0625 92,52.09375 C89.8175262,52.23325 87.4997391,49 87.4997391,49 C87.4997391,49 82.4538597,51.1105 77.678607,51.27925 C28.7082602,83.73325 0,67.702 0,67.702 Z" id="Path"></path>
                        <path d="M18.3991124,98.9517611 C16.0517128,99.3479909 13.4108883,97.2172015 16.1972516,95.712371 C18.5587356,94.9957851 25,95 25,95 C25,95 20.746512,98.5555312 18.3991124,98.9517611 Z" id="Path"></path>
                        <path d="M19,100.908032 C19,100.908032 26.1752794,96.7731646 26.5531569,95.0219002 C33.8294966,93.7617073 46.567485,81.8481761 46.567485,81.8481761 C46.567485,81.8481761 56.3483618,79.886132 65,74 C60.7422868,93.3401482 35.7540357,112.119712 31.9093514,112.960588 C28.0646671,113.801464 19,100.908032 19,100.908032 Z" id="Path"></path>
                        <path d="M92,53 C92,53 77.1607136,68.4118709 68.0375587,69.8223877 C66.2686948,70.3865944 65.8591549,71.9392914 65.8591549,71.9392914 C65.8591549,71.9392914 61.7746479,97.0464906 34,113.126382 C44.2123568,119.47258 49.2488263,122.435793 55.5117371,123 C73.6208075,113.126382 92,53 92,53 Z" id="Path"></path>
                        <path d="M101,49 C96.3624895,54.7249199 93.669883,53.0490066 93.669883,53.0490066 C93.669883,53.0490066 89.5147613,69.7612141 84.3027696,79.1664397 C78.9570246,94.6675206 64.4305438,122.32009 64.4305438,122.32009 C64.4305438,122.32009 38.4648705,169.524982 38.0175645,175.390679 C37.5702585,181.256375 45.7927948,179.021824 48.2595557,175.390679 C50.7263166,171.759533 68.1295888,128.04501 68.1295888,128.04501 L92.2490287,69.2651438 C92.2490287,69.2673784 98.5551659,54.3048243 101,49 Z" id="Path"></path>
                        <path d="M59,122.898953 L65,117 C65,117 63.4088831,122.362684 62,124.374764 C60.5911169,126.386843 59,122.898953 59,122.898953 Z" id="Path"></path>
                        <path d="M110,6.41118967 C110,6.41118967 110.045573,8.59836585 113.480903,10.4202836 C116.916233,12.2422014 118.90625,8.96143709 121.618924,10.4202836 C124.331597,11.8791301 123.582899,16.7740304 125.642361,18.2569358 C127.701823,19.7398413 135,25 135,25 C135,25 130.206163,11.3301489 125.642361,8.04938462 C121.078559,4.76862036 110,6.41118967 110,6.41118967 Z" id="Path"></path>
                        <path d="M20,37.8352027 C20,37.8352027 25.4301716,34.1120111 29.0153512,34.2932482 C32.7708377,33.2125381 38.1595243,29.0418475 45.2097952,28.3258491 C49.3932326,28.8852229 61.314719,26.4754408 66.1313488,27.0213896 C70.9479787,27.5673384 84.6926228,28.3258491 88.4917778,34.4789603 C88.6948361,37.0901169 103.081406,40.4016095 103.081406,40.4016095 C103.081406,40.4016095 114.895905,45.480723 123.061905,58.0711072 C145.282595,65.4324656 142.553317,81.8400161 142.553317,81.8400161 C142.553317,81.8400161 150.741151,85.9413444 152.559942,89 C154.743364,74.3802079 148.19528,52.2692827 146.193082,44.7714371 C144.190884,37.2735915 137.232316,27.0191521 137.232316,27.0191521 C137.232316,27.0191521 140.553302,46.9350947 141.826237,51.7076715 C143.099173,56.4802482 140.428847,65.6629276 140.428847,65.6629276 C140.428847,65.6629276 140.326226,53.4752925 139.459407,50.128 C138.592589,46.7807076 133.454996,27.3928138 134.546707,27.0191521 C135.638418,26.6454904 125.631793,21.9847884 124.540082,19.5615814 C123.448371,17.1383743 127.817399,28.2206869 127.26936,32.0535158 C126.721321,35.8863446 125.450569,44.7714371 125.450569,44.7714371 C125.450569,44.7714371 125.780266,32.619602 124.721306,28.3236117 C123.662346,24.0276213 121.184162,14.1535561 121.223463,13.0348086 C121.262765,11.9160611 113.987601,15.2723035 113.987601,13.0348086 C113.987601,10.7973136 113.074931,15.8316773 109.437349,25.7146925 C105.799767,35.5977078 112.018154,11.3566874 112.018154,11.3566874 C112.018154,11.3566874 109.437349,10.2379399 107.799782,4.82991457 C106.162215,2.03304587 98.1970905,4.82991457 98.1970905,4.82991457 C98.1970905,4.82991457 90.3324029,7.81249535 80.873817,14.1535561 C88.1489805,6.32232371 95.1031809,3.33974292 95.1031809,3.33974292 C95.1031809,3.33974292 81.9131261,-1.29858413 79.002624,0.35716214 C76.0921219,2.01290841 71.2274568,4.08706624 59.4216918,15.0865915 C62.1837211,8.93348032 67.3649825,6.27533631 67.3649825,6.27533631 C67.3649825,6.27533631 56.8561704,10.7973136 46.454346,20.3066672 C35.7468425,23.2914855 20,37.8352027 20,37.8352027 Z" id="Path"></path>
                    </g>
                </g>
            </g>
        </g>
    </g>
</svg>