<?xml version="1.0" encoding="UTF-8"?>
<svg width="201px" height="201px" viewBox="0 0 201 201" version="1.1" xmlns="http://www.w3.org/2000/svg" xmlns:xlink="http://www.w3.org/1999/xlink">
    <!-- Generator: Sketch 59 (86127) - https://sketch.com -->
    <title>noun_bean sprout_2879192</title>
    <desc>Created with Sketch.</desc>
    <g id="Page-1" stroke="none" stroke-width="1" fill="none" fill-rule="evenodd">
        <g id="Desktop-HD" transform="translate(-964.000000, -2905.000000)" fill="#32A060" fill-rule="nonzero">
            <g id="Group-2" transform="translate(275.000000, 2905.000000)">
                <g id="noun_bean-sprout_2879192" transform="translate(689.000000, 0.000000)">
                    <path d="M161.300213,59.9235592 C170.479023,58.3717266 178.487463,54.4966267 183.750252,49.0605009 C191.377315,40.6747572 192.76455,30.269665 187.483629,21.0579507 C182.397836,12.3807115 173.150852,5.18286025 161.300213,0.676784169 C158.81276,-0.298967956 155.73951,-0.205233357 153.385454,0.918185464 C151.046529,2.06672104 149.81965,4.01899151 150.19964,5.98761266 C150.19964,6.60835885 148.706289,8.8499423 144.375572,11.367413 C142.604435,12.3317651 140.759992,13.2296854 138.850174,14.0573131 C136.059543,15.268658 133.397873,16.6170653 130.885637,18.0921633 C121.78279,23.8883072 117.498867,32.4678703 119.486393,40.9218287 C120.519543,44.7208987 122.916132,48.2787485 126.455363,51.2675984 C126.157242,51.2997184 125.870309,51.3698774 125.609131,51.4745138 C107.743751,49.8458536 89.8179495,54.1607252 77.258982,63.1127487 C64.7000144,72.0647723 58.9845652,84.6013681 61.8430561,96.9269291 C63.4744445,102.665114 66.0984441,108.246115 69.6582581,113.549133 C72.0715911,117.280869 74.0847678,121.130721 75.6814393,125.067423 C78.1205788,131.792173 76.4281146,139.792902 69.8573715,143.207006 C63.5729122,139.067882 55.5900994,136.380997 47.0091057,135.51665 C29.4472368,134.133429 12.4883842,140.440737 4.44861064,151.345678 C-2.78205207,162.487592 -0.357338435,175.499493 10.7206836,185.003916 C21.372359,193.95469 36.9578047,199.397194 53.6794056,200.005282 C55.3718697,200.005282 57.0145555,200.005282 58.6572413,200.005282 C72.7628616,199.880929 86.6402884,197.521633 99.2266021,193.108102 C109.202014,189.967419 117.967897,185.241421 124.812678,179.313743 C132.408167,172.691396 135.428657,164.094242 133.075885,155.794359 C130.287723,146.751355 119.460344,139.958701 106.195572,138.930754 C102.071798,138.730771 98.49481,140.884632 98.2061458,143.741537 C97.9174816,146.598443 101.026452,149.076541 105.150227,149.276524 C111.807388,150.020844 117.112823,153.531814 118.490826,158.104914 C119.889194,163.327217 117.94573,168.712859 113.164542,172.864879 C107.697404,177.521769 100.722195,181.219874 92.8051941,183.658966 C81.1246794,187.967614 67.9962437,190.039042 54.7745294,189.659512 C42.2676487,189.222547 30.5691367,185.245058 22.4185975,178.65851 C14.9520111,172.276827 13.1897791,163.55833 17.8389886,156.001275 C23.0546879,149.076048 33.8564276,145.067611 45.0677498,145.896906 C56.1820593,147.119108 65.0972138,152.912825 67.5675671,160.518927 C68.0833059,162.33622 69.959304,163.824851 72.4888913,164.424067 C75.0184785,165.023284 77.8173504,164.642052 79.8311989,163.423976 C81.8450474,162.205901 82.7679211,160.336037 82.2521824,158.518745 C81.5260726,156.120249 80.3373147,153.800366 78.7179191,151.621565 C90.7642814,145.414104 93.6514261,132.757779 90.1669411,122.584438 C88.3614018,118.12397 86.0648667,113.765975 83.2975279,109.548768 C80.2313493,104.989441 77.9426959,100.198059 76.477893,95.271606 C73.9031159,84.1016182 80.801371,72.8982485 94.2211346,66.4550294 C107.640898,60.0118103 125.204753,59.4702091 139.397736,65.0619582 C153.330817,70.8121298 161.530139,81.4296995 160.702873,92.6506776 C160.414209,95.5075831 163.523179,97.9856811 167.646954,98.1856645 C171.770728,98.3856478 175.347716,96.2317869 175.63638,93.3748815 C176.337848,85.670996 173.795827,77.9917121 168.318961,71.26942 C173.406332,72.7250058 177.68239,75.2763027 180.514659,78.5459448 C185.531259,85.1383785 186.758443,92.8023153 183.949365,99.9961742 C181.648328,106.122341 178.30642,112.037772 173.993694,117.618469 L173.247019,117.997814 C164.671771,115.500675 156.840069,111.922508 150.149861,107.445128 C142.376645,102.261205 137.688143,95.2481695 137.008375,87.7881658 C136.882588,84.5211156 137.836051,81.2773496 139.795963,78.3045435 C141.336349,75.7402029 139.678642,72.7907923 136.040802,71.6233208 C132.402961,70.4558493 128.083593,71.487071 126.25625,73.9593202 C123.317119,78.3759739 121.88632,83.2023797 122.074868,88.064053 C122.894023,98.1318844 129.106792,107.625583 139.497293,114.687167 C148.604656,120.822122 159.453584,125.578352 171.355441,128.653956 C172.685609,129.775712 174.686333,130.411529 176.781282,130.378251 C179.58545,130.388755 182.161687,129.30989 183.451582,127.584894 C189.978472,119.639031 194.99777,111.142794 198.385089,102.306729 C202.17504,92.5100626 200.393247,82.0793254 193.407253,73.1661445 C186.602332,65.2908735 174.536844,60.3144493 161.300213,59.9235592 Z M140.891087,25.7825189 C142.832273,24.6671991 144.877634,23.6418875 147.013825,22.7132738 C149.413738,21.6565841 151.723949,20.5051532 153.933016,19.2646839 C156.902563,17.5806974 159.50179,15.6057187 161.648662,13.402081 C166.919766,16.4223648 171.010733,20.3119465 173.545689,24.713456 C177.084231,30.7945022 176.253211,37.6775674 171.305663,43.2668698 C168.745732,45.9230522 165.083603,47.9791716 160.80243,49.1639586 C161.372354,47.8731437 161.739521,46.5434847 161.897553,45.1980802 C162.121802,42.3508786 161.904857,39.495226 161.250435,36.680063 C160.741836,33.8231576 156.986556,31.7928157 152.862782,32.1451674 C148.739008,32.497519 145.808329,35.0991359 146.316928,37.9560413 C146.808599,40.0761025 146.992038,42.2249871 146.86449,44.3704186 C146.788652,45.8164386 146.11481,47.2169291 144.923134,48.4052688 L144.524907,48.6466701 C139.358974,46.5498954 135.587438,43.1321012 134.021674,39.1285619 C132.952679,34.1644106 135.529525,29.158059 140.891087,25.7825189 L140.891087,25.7825189 Z" id="Shape"></path>
                </g>
            </g>
        </g>
    </g>
</svg>