<?xml version="1.0" encoding="UTF-8"?>
<svg width="200px" height="201px" viewBox="0 0 200 201" version="1.1" xmlns="http://www.w3.org/2000/svg" xmlns:xlink="http://www.w3.org/1999/xlink">
    <!-- Generator: Sketch 59 (86127) - https://sketch.com -->
    <title>noun_cloning_2892462</title>
    <desc>Created with Sketch.</desc>
    <g id="Page-1" stroke="none" stroke-width="1" fill="none" fill-rule="evenodd">
        <g id="Desktop-HD" transform="translate(-275.000000, -2910.000000)" fill-rule="nonzero">
            <g id="Group-2" transform="translate(275.000000, 2905.000000)">
                <g id="noun_cloning_2892462" transform="translate(0.000000, 5.000000)">
                    <g id="Group">
                        <path d="M174.3,41.2114839 C180.080645,37.0974677 183.870968,30.3380323 183.870968,22.6935484 C183.870968,10.1796774 173.741935,0 161.290323,0 C148.83871,0 138.709677,10.1796774 138.709677,22.6935484 C138.709677,30.3380323 142.5,37.0974677 148.280645,41.2114839 C135.951613,45.6529355 126.509677,56.1795 123.567742,69.1991129 C119.145161,61.7653548 113.183871,55.2587903 105.974194,50.2532419 C122.258065,38.945371 132.258065,19.9995 132.258065,0 L125.806452,0 C125.806452,2.17858065 125.658065,4.34419355 125.4,6.48387097 L74.6,6.48387097 C74.3419355,4.34419355 74.1935484,2.17858065 74.1935484,0 L67.7419355,0 C67.7419355,19.9995 77.7419355,38.945371 94.0258065,50.25 C86.816129,55.2555484 80.8548387,61.7653548 76.4322581,69.1991129 C73.4903226,56.1827419 64.0451613,45.6529355 51.7193548,41.2114839 C57.5,37.0974677 61.2903226,30.3380323 61.2903226,22.6935484 C61.2903226,10.1796774 51.1612903,0 38.7096774,0 C26.2580645,0 16.1290323,10.1796774 16.1290323,22.6935484 C16.1290323,30.3380323 19.9193548,37.0974677 25.7,41.2114839 C10.7451613,46.5995806 0,60.9483871 0,77.8064516 L0,106.983871 C0,115.921887 7.23548387,123.193548 16.1290323,123.193548 L16.1290323,188.032258 C16.1290323,195.183968 21.916129,201 29.0322581,201 C32.9032258,201 36.3419355,199.242871 38.7096774,196.519645 C41.0774194,199.242871 44.516129,201 48.3870968,201 C55.5032258,201 61.2903226,195.183968 61.2903226,188.032258 L61.2903226,123.193548 C64.8193548,123.193548 68.2,122.010242 70.9548387,119.941887 C75.1225806,132.306629 83.1806452,143.218984 94.0258065,150.75 C77.7419355,162.054629 67.7419355,181.0005 67.7419355,201 L74.1935484,201 C74.1935484,198.821419 74.3419355,196.655806 74.6,194.516129 L125.4,194.516129 C125.658065,196.655806 125.806452,198.821419 125.806452,201 L132.258065,201 C132.258065,181.0005 122.258065,162.054629 105.974194,150.75 C116.819355,143.222226 124.874194,132.306629 129.045161,119.941887 C131.8,122.010242 135.180645,123.193548 138.709677,123.193548 L138.709677,188.032258 C138.709677,195.183968 144.496774,201 151.612903,201 C155.490323,201 158.932258,199.236387 161.3,196.506677 C163.690323,199.236387 167.183871,201 171.177419,201 L171.180645,201 C178.177419,200.88329 183.870968,194.850048 183.870968,187.545968 L183.870968,123.193548 C192.764516,123.193548 200,115.921887 200,106.983871 L200,77.8064516 C200,60.9483871 189.254839,46.5995806 174.3,41.2114839 Z M145.16129,22.6935484 C145.16129,13.7555323 152.396774,6.48387097 161.290323,6.48387097 C170.183871,6.48387097 177.419355,13.7555323 177.419355,22.6935484 C177.419355,31.6315645 170.183871,38.9032258 161.290323,38.9032258 C152.396774,38.9032258 145.16129,31.6315645 145.16129,22.6935484 Z M79.1870968,123.193548 L120.816129,123.193548 C119.793548,125.430484 118.632258,127.599339 117.322581,129.677419 L82.6806452,129.677419 C81.3709677,127.599339 80.2096774,125.430484 79.1870968,123.193548 Z M120.812903,77.8064516 L79.1870968,77.8064516 C80.2096774,75.5695161 81.3709677,73.4006613 82.6806452,71.3225806 L117.322581,71.3225806 C118.629032,73.4006613 119.790323,75.5695161 120.812903,77.8064516 Z M76.7032258,84.2903226 L123.3,84.2903226 C123.964516,86.4105484 124.503226,88.5761613 124.903226,90.7741935 L75.0967742,90.7741935 C75.5,88.5761613 76.0387097,86.4105484 76.7032258,84.2903226 Z M74.1935484,100.5 C74.1935484,99.4139516 74.2354839,98.3343871 74.3,97.2580645 L125.7,97.2580645 C125.764516,98.3343871 125.806452,99.4139516 125.806452,100.5 C125.806452,101.586048 125.764516,102.665613 125.7,103.741935 L74.3,103.741935 C74.2354839,102.665613 74.1935484,101.586048 74.1935484,100.5 Z M76.7032258,116.709677 C76.0387097,114.589452 75.5,112.423839 75.1,110.225806 L124.906452,110.225806 C124.503226,112.423839 123.964516,114.589452 123.303226,116.709677 L76.7032258,116.709677 Z M90.4870968,38.9032258 L109.512903,38.9032258 C106.651613,41.7399194 103.477419,44.2880806 100,46.4407258 C96.5225806,44.2880806 93.3483871,41.7399194 90.4870968,38.9032258 Z M84.8709677,32.4193548 C83.3580645,30.3574839 82.0064516,28.1853871 80.7967742,25.9354839 L119.206452,25.9354839 C117.993548,28.1853871 116.641935,30.3574839 115.132258,32.4193548 L84.8709677,32.4193548 Z M124.206452,12.9677419 C123.66129,15.1755 122.980645,17.337871 122.174194,19.4516129 L77.8290323,19.4516129 C77.0193548,17.337871 76.3419355,15.1755 75.7967742,12.9677419 L124.206452,12.9677419 Z M100,54.0592742 C104.758065,57.0061935 108.967742,60.6630968 112.541935,64.8387097 L87.4580645,64.8387097 C91.0322581,60.6630968 95.2419355,57.0061935 100,54.0592742 Z M22.5806452,22.6935484 C22.5806452,13.7555323 29.816129,6.48387097 38.7096774,6.48387097 C47.6032258,6.48387097 54.8387097,13.7555323 54.8387097,22.6935484 C54.8387097,31.6315645 47.6032258,38.9032258 38.7096774,38.9032258 C29.816129,38.9032258 22.5806452,31.6315645 22.5806452,22.6935484 Z M61.2903226,116.709677 L61.2903226,64.8387097 L54.8387097,64.8387097 L54.8387097,188.032258 C54.8387097,191.608113 51.9451613,194.516129 48.3870968,194.516129 C44.8290323,194.516129 41.9354839,191.608113 41.9354839,188.032258 L41.9354839,110.225806 L35.483871,110.225806 L35.483871,188.032258 C35.483871,191.608113 32.5903226,194.516129 29.0322581,194.516129 C25.4741935,194.516129 22.5806452,191.608113 22.5806452,188.032258 L22.5806452,64.8387097 L16.1290323,64.8387097 L16.1290323,116.709677 C10.7935484,116.709677 6.4516129,112.346032 6.4516129,106.983871 L6.4516129,77.8064516 C6.4516129,59.9304194 20.9225806,45.3870968 38.7096774,45.3870968 C56.4967742,45.3870968 70.9677419,59.9304194 70.9677419,77.8064516 L70.9677419,81.0192097 C68.8677419,87.2307581 67.7419355,93.8054032 67.7419355,100.5 C67.7419355,104.63671 68.183871,108.728032 69.0064516,112.718855 C67.1935484,115.169758 64.3612903,116.709677 61.2903226,116.709677 Z M109.512903,162.096774 L90.4870968,162.096774 C93.3483871,159.260081 96.5225806,156.711919 100,154.559274 C103.477419,156.711919 106.651613,159.260081 109.512903,162.096774 Z M115.129032,168.580645 C116.641935,170.642516 117.993548,172.814613 119.203226,175.064516 L80.7967742,175.064516 C82.0096774,172.814613 83.3612903,170.642516 84.8709677,168.580645 L115.129032,168.580645 Z M75.7935484,188.032258 C76.3387097,185.8245 77.0193548,183.662129 77.8258065,181.548387 L122.170968,181.548387 C122.980645,183.662129 123.66129,185.8245 124.203226,188.032258 L75.7935484,188.032258 Z M100,146.940726 C95.2419355,143.993806 91.0322581,140.336903 87.4580645,136.16129 L112.541935,136.16129 C108.967742,140.336903 104.758065,143.993806 100,146.940726 Z M193.548387,106.983871 C193.548387,112.346032 189.206452,116.709677 183.870968,116.709677 L183.870968,71.3225806 L177.419355,71.3225806 L177.419355,187.545968 C177.419355,191.332548 174.574194,194.457774 170.967742,194.516129 C167.409677,194.516129 164.516129,191.608113 164.516129,188.032258 L164.516129,110.225806 L158.064516,110.225806 L158.064516,188.032258 C158.064516,191.608113 155.170968,194.516129 151.612903,194.516129 C148.054839,194.516129 145.16129,191.608113 145.16129,188.032258 L145.16129,71.3225806 L138.709677,71.3225806 L138.709677,116.709677 C135.63871,116.709677 132.809677,115.169758 130.993548,112.718855 C131.816129,108.728032 132.258065,104.63671 132.258065,100.5 C132.258065,93.8054032 131.132258,87.2307581 129.032258,81.0192097 L129.032258,77.8064516 C129.032258,59.9304194 143.503226,45.3870968 161.290323,45.3870968 C179.077419,45.3870968 193.548387,59.9304194 193.548387,77.8064516 L193.548387,106.983871 Z" id="Shape" fill="#32A060"></path>
                        <rect id="Rectangle" fill="#000000" x="158.064516" y="51.8709677" width="6.4516129" height="6.48387097"></rect>
                        <rect id="Rectangle" fill="#000000" x="158.064516" y="64.8387097" width="6.4516129" height="6.48387097"></rect>
                        <rect id="Rectangle" fill="#000000" x="158.064516" y="77.8064516" width="6.4516129" height="6.48387097"></rect>
                        <rect id="Rectangle" fill="#000000" x="35.483871" y="51.8709677" width="6.4516129" height="6.48387097"></rect>
                        <rect id="Rectangle" fill="#000000" x="35.483871" y="64.8387097" width="6.4516129" height="6.48387097"></rect>
                        <rect id="Rectangle" fill="#000000" x="35.483871" y="77.8064516" width="6.4516129" height="6.48387097"></rect>
                    </g>
                </g>
            </g>
        </g>
    </g>
</svg>