<svg xmlns="http://www.w3.org/2000/svg" xmlns:xlink="http://www.w3.org/1999/xlink" version="1.1" x="0px" y="0px" viewBox="0 0 100 125" enable-background="new 0 0 100 100" xml:space="preserve"><g display="none"><path display="inline" d="M-550.792,52.208c-0.114,0.729-1.677,1.563-1.083,1.708s0.634,1.386,1.083,1.75s1.235,0.053,1.186-0.292   s-0.061,0.646,1.898,0.667s2.417-3.208,2.417-3.208s-2.051-0.396-3.292-0.042C-549.625,53-550.679,51.479-550.792,52.208z"/><path display="inline" d="M-557,49.333c-0.125-0.552-2.812,0.761-3.219,0.667c0.094,0.531-0.406,2.812-0.312,3.281   s1.219,0.594,1.219,0.594s0.812,1.281,1.875,1.156s3.375-1.781,3.375-1.781s-0.969-0.656-1.406-0.469S-556.438,49.812-557,49.333z"/><path display="inline" d="M-564.094,40.594c0.812,0.469,0.906,1.125,0.906,1.125s-0.062,4.25,1,5.188s4.406,1.25,4.406,1.25   s-0.656,0.854-1.438,1.177s-3.812-0.021-5.281-2.677c-0.499-0.647-1.344-1.812-1.688-1.875S-566.281,40.25-564.094,40.594z"/><path display="inline" d="M-569.094,37.531c0,0,1.75,3.234,3.062,4.328c-0.594,0.75-0.453,2.891-0.453,2.891   s-4.688-1.297-5.016-2.922C-572.281,38.156-569.094,37.531-569.094,37.531z"/><path display="inline" d="M-569.484,34.203c0,0-1.797-1.516-3.5,0.375c-2.062,3.375,1.203,6.891,1.203,6.891   s-0.562-2.375,1.438-3.633C-570.641,36.109-569.484,34.203-569.484,34.203z"/><path display="inline" d="M-561.266,37.891c0,0-0.188-0.656-1.094-1.016s-1.844-0.016-2.312,0.25s-0.391,0.688-0.516,1.125   S-565,40.575-565,40.575s0.078-0.059,0.406-0.106c-0.109-0.734-0.531-2.422,0.281-2.641S-561.266,37.891-561.266,37.891z"/><path display="inline" d="M-538.953,47.625c0.469-0.109,0.812,0.688,1.062,0.688s0.297-0.062,0.531,0   c-0.266,0.938,0.156,2.828,0.094,3.203s-0.719,0.408-1,0.493s-0.344,1.726-0.688,1.585s-0.328,0.094-0.594,0   s-1.75,0.188-1.75,0.188s0.594-0.266,0.984-0.672s0.372-4.202,0.531-4.516S-539.422,47.734-538.953,47.625z"/><path display="inline" d="M-547.859,49.703c0.672,0.406,1.734-0.906,2.188-0.859s0.328,0.473,0.859,0.354s1.672-2.15,1.719-2.557   s-0.953-1.953-0.984-1.688s-1.703,0.516-1.703,0.516S-548.531,49.297-547.859,49.703z"/><path display="inline" d="M-547.781,40.328c0.188,0.578-0.562,3.25-0.672,3.938s0.078,1.781,0,2.094s-0.562,1.245-1.062,1.255   s-1.625-0.974-1.75-1.287s-1.469-0.5-1.609-0.938S-549.641,39.719-547.781,40.328z"/><path display="inline" d="M-534.297,50.609c1.375-0.484,2.578,0.938,2.75,1.344s-1.188,2.375-1.375,2.625   S-534.688,51.062-534.297,50.609z"/><path display="inline" d="M-528.5,44.562c0.156-0.125,1.797,0.516,1.609,1.75s-0.578,1.562-1,1.812s-2.531-0.141-2.859-0.51   C-528.391,47-528.656,44.688-528.5,44.562z"/><path display="inline" d="M-552.469,59.359c0.062-0.391-2.969-1.328-2.969-1.328s-0.75,0.797-0.922,1.156s0.281,1.688,0.531,2.094   s1.547,0.969,1.766,1.094s0.56-0.135,0.984-0.094s1.406,0.188,1.688-0.109C-553.594,61.484-552.531,59.75-552.469,59.359z"/><path display="inline" d="M-561.188,58.625c-0.125-0.5-2.156-2.062-2.625-2.297s-4.656,0.359-5.312,0.094s-2.375-2.672-2.375-2.672   s-0.562,2.281-0.078,2.891c-0.203,0.984,0.422,1.672,0.422,1.672s-0.443,2.067,0.969,2.281c2.312,1.688,6.797,1.031,6.797,1.031   S-561.062,59.125-561.188,58.625z"/><path display="inline" d="M-559.531,60.297c0.062-0.359-2.359-0.219-2.672,0.297s-1.266,1.328-1.266,1.328s-0.656,2.094,0.344,2.25   c0.156,0.812,1.031,1.188,1.266,0.984c0.312,0.656,0.891,0.906,2.562,1.141s3.844-3.078,3.844-3.078s-1.109,0.625-1.406,0.688   S-559.594,60.656-559.531,60.297z"/><path display="inline" d="M-536.938,57.781c-3.656,5.688-8.355,3.281-8.355,3.281s2.105,1.75,3.48,1.688   c0.469,0.594,0.5,1.438,3.469,0.875S-536.143,57.469-536.938,57.781z"/><path display="inline" d="M-541.297,65.344c0,0,3.028-0.719,4.038-0.375S-535,67-534.719,67.344s-0.125,0.875-0.875,0.719   c0.062,0.5-0.875,1.438-1.666,1.25c-0.366-0.031-0.053,0.781-1.022,1.375C-540.938,70.125-541.297,65.344-541.297,65.344z"/><path display="inline" d="M-527.25,65.594c-0.062,0.312-0.406,0.281-0.406,0.281s0.781,2.125,0.906,2.969s-0.5,1.812-1.688,2.344   c-0.062,0.781-1.031,1.094-1.031,1.094s1.281,0.875,2.062,0.969s0.781,0.094,0.812-0.781c1.25-0.25,1.75-1.469,1.688-2.344   S-526.656,65.719-527.25,65.594z"/><path display="inline" d="M-524.094,49.781c0,0-1.719,0.781-1.562,1.5c0.375,1.781-0.812,3.906-0.812,3.906s3.188-0.469,3.625-1   s-0.438-1.375-0.438-1.375s0.75-0.406,0.625-1.062S-524.094,49.781-524.094,49.781z"/><path display="inline" d="M-578.469,34.688c0.812-3.031,4.25-5.281,4.062-5.719s1.219-0.938-1.188-1.156s-3.062,3.281-3.062,3.281   S-580.094,33.219-578.469,34.688z"/><path display="inline" d="M-587.156,45.344c0.219-0.75-0.969-0.938-1.969-0.594s-1.344,1.125-1.469,2.031s0.041,1.744,0.219,2.344   s0.5,3.969,1.375,4.625C-589.469,48.094-587.375,46.094-587.156,45.344z"/><path display="inline" d="M-565.875,62c-1.708,0.208-3.458-0.583-3.458-0.583s-3.25,3.125-4.083,7.292S-571.775,75-571.775,75   s0.816,2,3.4,2s3.625-0.875,3.625-0.875s-4.5-0.5-5.458-2.583s-0.03-4.351,0.542-5.375S-567.75,64.625-565.875,62z"/><path display="inline" d="M-564.531,76.156c0.583,0.197,0.851-0.312,0.851-0.312s0.628,0.586-0.236,1.949s-4.167,0.543-5.75,0   s-2.802-3.012-2.396-2.699S-569.766,79.062-564.531,76.156z"/><path display="inline" d="M-563.68,61.874c0,0-1.236,0.104-1.923,0.083c-0.434,0.273-3.396,5.333-3.396,5.333   s4.083-2.562,5.646-2.958C-564.291,63.791-563.68,61.874-563.68,61.874z"/><path display="inline" d="M-561.895,65.666c-0.188-0.146,0.008-0.102-0.104-0.271c-0.729-0.021-0.958-0.521-1.25-0.917   c-0.652,0.037-5.919,3.062-5.919,3.062s-1.081,1.333-1.268,4.292s4.271,3.938,4.271,3.938s-3.875-1.291-2.833-4.083   s1.729-2.562,2.646-3.271S-561.708,65.812-561.895,65.666z"/><path display="inline" d="M-549.146,55.958c0,0-0.167,0.062-0.461-0.25c-0.331,0.312-0.685,0.25-0.685,0.25   s-1.089,3.328-2.089,3.516c-0.125,0.854-0.885,1.885,1.085,2.492C-548.946,60.695-549.146,55.958-549.146,55.958z"/><path display="inline" d="M-536.625,62.422l2.109,4.078c0,0,0.121,0.244,0,0.844c-1.734-2.609-3.203-2.609-3.203-2.609   S-536.641,62.953-536.625,62.422z"/><path display="inline" d="M-536.844,62.781c-0.556,1.113-2.262,1.195-3.125,1.195c-1.358-0.001-1.973-0.705-1.953-1.086   c-0.297,0,0.32,2.297,0.625,2.281c1.047-0.375,3.406-0.438,3.406-0.438S-536.82,62.954-536.844,62.781z"/><path display="inline" d="M-538.969,70.688c-2.125-0.344-2.531-4.656-2.594-5.375c-0.572-0.095-0.656-2.375-0.656-2.375   l-0.625-0.156c0,0,3.375,17.696,5.125,18.196C-538.656,77.509-538.781,74.188-538.969,70.688z"/><path display="inline" d="M-535.094,64.883c0,0,0.625,0.867,0.812,1.742s-0.181,1.281-0.181,1.281s3.493,4.438,4.649,4.375   c1.198-0.61,0.951-0.368,1.094-1.219c3.125-1.188,0.5-4.906,0.875-5.219C-530.969,67.062-535.094,64.883-535.094,64.883z"/><g display="inline"><path d="M-512.75,69.16c-0.156-1.401-1.344-1.817-1.75-0.86c-0.33,0.778-3.382,2.629-4.516,3.297    c0.257,0.128,0.49,0.214,0.672,0.214c1.188,0,0.781-0.938,1.562-0.719c0.55,0.154,0.656,1.38,0.363,2.063    C-514.677,71.973-512.654,70.021-512.75,69.16z"/></g><path display="inline" d="M-526.344,64.875c-0.25,0.531-0.656,0.531-0.656,0.531s2.25,2.406,2.312,5.281   c-0.304,0.88-0.219,1.656-1.719,1.969c0.125,0.625-0.25,0.812-0.25,0.812s3.344,2.125,5.062,2.062s3.281-0.469,4.5-1.719   c0.531-0.344,1.062-2.219,0.281-2.438s-0.375,0.719-1.562,0.719C-520.156,72.094-526.031,65.281-526.344,64.875z"/><path display="inline" d="M-524.703,62.516c0,0,0.109,1.047-1.469,2.109c0.969,1.766,6.812,6.891,6.812,6.891   s1.484-0.702,1.734-1.046C-518.078,67.219-524.703,62.516-524.703,62.516z"/><path display="inline" d="M-523.828,63c0,0,6.125,4.453,6.438,7.344c0.734-0.406,2.141-1.359,2.562-1.906   c-0.672-0.609-3.469-2.703-5.109-4.062C-521.766,64.594-523.828,63-523.828,63z"/><path display="inline" d="M-546.02,76.542c0,0-3.938,6.062-6.562,6.646s-4.521-0.792-4.771-0.75s0.021,0.208-0.083,0.562   s-0.479-0.542-0.604,0.062s0.646,1.5,1.125,1.833s2.229,0.563,6.646-1.417S-546.02,76.542-546.02,76.542z"/><path display="inline" d="M-551.938,67.782c0.146,0.01,0.542,6.135,0.188,8.218c-0.479,1.625-2.417,3.083-4.229,3.708   s-4.042-0.417-4.042-0.417S-552.458,75.542-551.938,67.782z"/><path display="inline" d="M-552.271,62.52c0,0,0.766,0.165,1.104-0.334c0.932-0.358,1.687-2.479,1.687-2.479   s0.319,4.896,0.271,6.602s-0.208,7.44-0.208,7.44s-2.594-6.776-2.62-7.217s-0.234-3.906-0.234-3.906"/><path display="inline" d="M-553.854,80.978c0,0,3.76-1.587,4.417-7c-0.359-0.165-2.599-6.937-2.599-6.937s1.052,3.413,0.429,9.069   C-551.656,77.484-553.854,80.978-553.854,80.978z"/><path display="inline" d="M-563.328,48.422c0,0-1.328,1.016-1.656,1.234s-2.5,3.188-2.859,5.203c-0.156,0.391,0.062,1.078,0,1.297   s-0.891,0-1.141,0s-1.746-1.385-2.344-2.609C-570.844,52.344-563.328,48.422-563.328,48.422z"/><path display="inline" d="M-587.13,45.734c-1.276,1.453-1.903,6.719-1.754,8.234c1.04,1.25,1.696,1.766,3.696,2.75   c7.875,2.094,13.25-0.234,13.25-0.234s-0.266-1.781,0.297-2.984s3.297-2.453,3.297-2.453s-3.75,0.266-5.375-0.172   c-0.172-0.078-3.847,1.22-4.141,1.281s-5.641,1.266-7.688,0.047S-587.328,47.672-587.13,45.734z"/><path display="inline" d="M-574.094,50.734l-1.469-0.891c0,0-3.328,1.125-4.031,1.25s-3.469,0.062-4.141-0.219   s-3.396-3.172-3.396-3.172s0.086,3.807,1.786,4.406c2.094,0.828,6.188,0.252,7.312-0.109S-574.094,50.734-574.094,50.734z"/><path display="inline" d="M-564.5,47.063l1.062,1.229l-4.688,2.521c0,0-4.439,0.198-5.646-0.208   c-2.307-0.588-5.25-4.812-5.542-6.104c-0.542-4.312,1.687-5,2.396-5.125s2.313,5.521,6.229,6.708S-564.5,47.063-564.5,47.063z"/><path display="inline" d="M-564.708,46.813c-0.083-0.229-0.625-0.771-0.625-0.771l-2.625,0.385   C-567.958,46.428-565.333,47.105-564.708,46.813z"/><path display="inline" d="M-574.396,29.438c0,0-2.668,2.803-2.854,3.188s-1.042,2.042-1.146,2.375s0.146,0.669,0.604,1.72   s3.104,3.363,4.854,3.613c-0.833-1.188-1.021-3.396-1.021-3.396s-2.146-1.917-1.708-3.729S-574.396,29.438-574.396,29.438z"/><path display="inline" d="M-575.02,31.688c0,0-1.354,3.083,1.104,4.917c-0.042-1.292,0.646-1.792,0.792-2.25   C-573.958,34.042-575.02,31.688-575.02,31.688z"/><path display="inline" d="M-565.217,37.271c-0.47,1.458,0,3.304,0,3.304l-0.814,0.894c0,0-2.795-3.461-2.905-4.198   c-0.188-0.208-1.167,0.278-1.167,0.278s-0.013-1.173,0.619-2.861C-567.853,36.271-567.747,37.521-565.217,37.271z"/><path display="inline" d="M-559.374,41.562c-1.521-0.979-2.167-3.484-2.167-3.484s-2.589-0.257-2.917,0.109   s0.146,2.146,0.146,2.146s0.854,0.104,1.25,0.979C-562.124,41.041-560.999,41.291-559.374,41.562z"/><path display="inline" d="M-562.603,56.874c0,0,0.062-0.496-1.167-0.832s-3.771,0-3.771,0s-0.229-0.356,0-0.835   s6.997-4.125,6.997-4.125s-0.476,1.646-0.268,2.292s0.792,0.652,0.792,0.652L-562.603,56.874z"/><path display="inline" d="M-567.498,54.77c0,0,1.326-3.805,2.79-4.917s1.564-1.188,1.564-1.188s1.388,0.834,2.708,0.938   c-0.042,0.542-0.062,0.854-0.107,1.125C-562.269,51.249-567.498,54.77-567.498,54.77z"/><path display="inline" d="M-562.353,57.041l2.542-2.896h0.354c0,0,0.431,0.915,1.042,0.896c-0.521,0.917-2.768,4.5-2.768,4.5   s0.205-0.813,0.226-1.208S-562.353,57.041-562.353,57.041z"/><path display="inline" d="M-555.453,63.031l0.297-0.938c0,0-0.469,0.094-0.969-0.531s-0.781-1.844-0.625-2.469   s1.594-1.501,1.594-1.501l1.302-4.092c0,0-3.033,1.594-3.449,1.812s-0.822-0.062-0.822-0.062l-3.058,4.625   c0,0,1.339-0.306,1.745-0.168s2.102,3.887,2.625,3.731S-555.453,63.031-555.453,63.031z"/><path display="inline" d="M-554.875,57.75c0,0,1.062-3.532,1.406-4.25c0.969-0.5,2.281-1.837,2.281-1.837v0.675   c0,0-1.25,0.975-1.312,1.443s0.489,0.238,0.656,0.531s1.107,1.941,1.107,1.941s-0.898,2.653-1.534,2.809   C-553.094,58.25-554.875,57.75-554.875,57.75z"/><path display="inline" d="M-560.384,79.094c1.062-0.438,6.946-3.312,8.113-11.312c-0.166-2.374-0.358-5.125-0.358-5.125   s-1.017-0.125-1.226,0.125S-555,62.422-555,62.422s-1.219,6.391-1.875,7.828s-3.896,4.969-4.308,5.75S-561.05,79.06-560.384,79.094   z"/><path display="inline" d="M-547.833,56.253c-0.333,0.329-1,0-1,0l-0.369,3.287c0,0,0.551,8.5,0.369,11.975   c-0.4,2.074,0.167,7.275-5.021,9.817c-0.729-0.333-1.599,0-1.599,0l-1.588,0.875c0,0,3.055,1.125,4.236,0.708   s3.721-2.38,6.787-6.917c3.935-3.25,2.185-13.577,2.185-13.577s-1.5-0.759-1.875-1.632S-548.083,58.499-547.833,56.253z"/><path display="inline" d="M-531.833,87.207c-0.625,0.542-1.958,0-1.958,0s-2.016-1.424-2.299-2.09s-1.222-2.868-1.222-2.868   s0-0.468-1.104-1.271c-1-0.52-4.693-18.196-4.693-18.196l-0.438-0.156c0,0,0.401,4.888,0.297,7.006s-1.047,4.377-1.047,4.377   s2.953,11.47,4.875,13.491s3.547,2.292,3.547,2.292S-530.749,89.54-531.833,87.207z"/><path display="inline" d="M-537.188,57.688c0.156,0.016-3.359,5.688-8.5,2.781c-1.172-1.578-1.842-2.352-1.953-4.215   c1.969-0.191,2.469-2.878,2.469-2.878s0.669,3.623,2.5,5.578S-537.859,57.594-537.188,57.688z"/><path display="inline" d="M-548.229,46.126c0,0-0.306,2.667,0.264,2.625c0.424-0.625,1.361-2.833,2.07-3.542   C-546.938,44.417-548.229,46.126-548.229,46.126z"/><path display="inline" d="M-545.292,52.563c0.522-0.438,0.126-3.13,0.126-3.13s-0.067-0.315-0.542-0.236   c-0.5,0.637-1.708,0.739-2.146,0.803s-0.271-0.999-0.271-0.999s0.036-0.137-0.312-0.25c-0.646,0.875-1.083,3.586-1.083,3.586   s0.385,0.287,0.771,0.226C-548.208,52.313-546.062,52.459-545.292,52.563z"/><path display="inline" d="M-550.979,51.293c0.115-0.357,1.125-3.5,1.125-3.5s0.937,0.208,1.354-0.907   c-0.124,0.269,0.125,1.052,0,1.536c-0.646,0.288-1.24,3.697-1.24,3.697S-551.093,51.65-550.979,51.293z"/><path display="inline" d="M-553.708,53.209c0.312,0.083,2.25-1.424,2.375-1.771S-550,47.73-550,47.73s-0.771-0.333-0.885-0.583   c-0.218,1.062-3.531,5.562-3.531,5.562S-554.02,53.126-553.708,53.209z"/><path display="inline" d="M-558.291,49.085c0,0,0.955-0.875,0.988-1.167c1.283-0.167,5.2-1.771,5.2-1.771s0.542,0.093,0.562,0.317   s0.461,0.426,0.417,0.558c-0.608,1.774-3.583,5.55-3.583,5.55l-0.625-0.092c0,0-1.208-3.416-1.604-3.521   S-558.291,49.085-558.291,49.085z"/><path display="inline" d="M-552.687,44.293l-1.376-0.625l-5.083-1.833l-3.812-0.272c0,0-0.056,3.762,0.91,4.903   s4.382,1.432,4.382,1.432s4.604-1.479,5.208-1.854C-553.999,45.751-552.687,44.293-552.687,44.293z"/><path display="inline" d="M-552.562,44.064l0.458-0.5v-1.583c0,0-1.562-1.416-1.479-3.646s1.104-3.667,0.854-3.833   s-2.042,0.667-2.479,1.438s-0.563,3.631-0.417,5.201s1.292,2.153,1.292,2.153l1.688,0.771"/><path display="inline" d="M-555.874,40.731c-0.188,1.458,0.854,2.333,0.854,2.333l-4.104-1.502c0,0-1.7-1.227-2.142-3.414   c0.475,0.188,0.309-0.07,0.309-0.07l-0.604-1.097c0,0,1.854-3.458,2.458-2.854S-559.895,40.064-555.874,40.731z"/><path display="inline" d="M-560.833,35.336c0,0-0.667,1.167-0.979,1.5c-0.562-0.479-1.854-0.312-1.854-0.312   s-1.688-5.583,1.417-6.75s3.25,0.312,3.25,0.646s-1.979,0.646-2.146,1.979S-560.833,35.336-560.833,35.336z"/><path display="inline" d="M-549.437,40.575c-1.25,0.636-2.438,2.49-2.438,2.49s0.146-1.401,0-1.502s2.854-5.414,5.188-5.476   C-548.624,37.919-548.187,39.938-549.437,40.575z"/><path display="inline" d="M-548.166,40.065c0,0,1.312-2.646,1.625-2.792s0.417-0.479,0-1c-0.833,0.312-2.146,3.896-2.146,3.896   L-548.166,40.065z"/><path display="inline" d="M-547.965,40.065c0,0-0.013-0.041,0.341,0.104s-0.687,4.292-0.687,4.292v1.229   c0,0,0.832-0.743,1.208-0.767c-0.021-1.378,1.575-4.644,1.575-4.644s0.863-2.151,0.78-3.005   C-546.062,36.732-547.965,40.065-547.965,40.065z"/><path display="inline" d="M-547.916,35.253c0,0,0.042-0.542-1.229-0.667s-2.479,0.979-4.062,2.627   c-0.625,2.102,0.938,4.348,0.938,4.348s0.23,0.146,0.271-0.351C-551.791,38.399-547.916,35.253-547.916,35.253z"/><path display="inline" d="M-553.355,34.356c0,0-1.562,0.604-2.062,1.312s-0.562,4.25-0.521,4.906   c-0.509,0.019-1.542-0.798-1.542-0.798s-0.062-3.44,1.333-4.815s3.062-1.5,3.062-1.5s0.541,0.062,0.521,0.333   S-553.355,34.356-553.355,34.356z"/><path display="inline" d="M-553.104,36.72c0,0,0.564-1.908,0.646-2.24s-0.188-0.228-0.188-0.228s0.417-0.479,0.292-0.792   s5.229,0.604,3.208,0.792S-553.104,36.72-553.104,36.72z"/><path display="inline" d="M-557.703,39.575c0,0-1.109-1.638-0.984-3.302s1.562-4.273,3.172-4.367s2.078-0.188,2.766,0.547   s0.078,0.828,0.078,0.828s-2.344-0.047-3.969,1.922C-557.781,36.875-557.703,39.575-557.703,39.575z"/><path display="inline" d="M-552.103,33.209c0,0-0.444-1.053-0.881-1.193s2.438-1.359,3.812-0.344c0.359,0.375-1,0.562-1.266,0.875   s0.219,0.914,0.219,0.914L-552.103,33.209z"/><path display="inline" d="M-559.374,33.859c0,0,0.203-0.141,0.375,0s0.302,1.438,0.302,1.438s1.135-3.854,2.213-4.026   c1.685-0.494,1.234-0.505,1.984-0.365c0.688,0.129,0.47,0.875,1.145,0.844s0.73-1.281,0.73-1.281s-0.14-2.297-3.375-1.297   S-559.374,33.859-559.374,33.859z"/><path display="inline" d="M-557.859,33.461c0,0,0.722-1.79,1.203-1.961s1.305-0.484,1.637-0.5s0.707,0.156,0.707,0.156   s0.204,0.046,0.312,0.438C-556.859,31.344-557.859,33.461-557.859,33.461z"/><path display="inline" d="M-560.625,31.843c0.781,0.313,1.251,0.523,1.251,0.523s-0.251,1.04-0.251,1.54c-0.344,0-1,1.152-1,1.152   S-561.375,32.28-560.625,31.843z"/><path display="inline" d="M-574.875,27.625H-576c0,0-3.594-5.031-2.062-8.125c0.209-0.425,1.546-3.594,3.804-2.5   c0.165,0.344,0.708,0.438,0.092,1.344C-576.531,22.594-574.875,27.625-574.875,27.625z"/><path display="inline" d="M-574.359,29.719c0,0,0.14-0.312,0.101-0.625S-574,28.516-574,28.516s0.891,1.922,1.844,3.172   C-572.656,31.406-574.359,29.719-574.359,29.719z"/><path display="inline" d="M-576.281,27.625c-0.672-0.797-1.234-2.156-2.161-4.594c-2.058,0.75-0.073,6.797-0.073,6.797   S-577.859,27.875-576.281,27.625z"/><path display="inline" d="M-574.75,20.469c-0.958,3.135,0.167,7.156,0.167,7.156s0.363,0.103,0.704,0.75s1.005,1.958,1.963,3.468   s6.833,5.175,6.833,5.175s0.438-0.414,1.125-0.414c-1.271-4.083,0.375-6.208,0.375-6.208s-0.979-1.479-2.75-2.104   C-570.167,27.854-573.271,23.333-574.75,20.469z"/><path display="inline" d="M-557.719,29.828c0,0-7.094-8.703-8.812-8.922s-2.562,1.292-2.562,1.292s1.562-0.151,1.969,0.271   s0,1.562,0.438,2.438S-557.719,29.828-557.719,29.828z"/><path display="inline" d="M-567.344,22.5c-0.221-0.242-0.766-0.094-1.859-0.094c-0.609,0.984,2.641,5.703,2.641,5.703   s0.156-0.109,0.312,0c0.938,0.109,2.844,2.094,2.844,2.094s2.391-1.5,3.547-1s1.018,0.51,1.031,1.312   c-0.703,0.547-1.688,1.172-1.688,1.172s0.984,0.21,1.25,0.542c-0.031-0.449,1.406-2.199,1.406-2.199s-8.766-4.391-9.016-4.891   S-567.123,22.742-567.344,22.5z"/><path display="inline" d="M-552.423,31.271c0,0,1.017-0.333,2.017-0.272c0.562-1.78-7.144-13.562-7.884-14.437   s-4.803-3.719-5.491-2.562s2.406,5.031,3.156,5.594s4.312,6.719,4,9.326C-551.281,27.656-552.423,31.271-552.423,31.271z"/><path display="inline" d="M-540.016,48.751c0,0-0.268,3.949-0.453,4.186s-0.174,0.431-1.094,0.734   c-0.953-0.234-3.344-3.162-3.344-3.162s0.062-0.697-0.116-1.088c0.257,0.094,0.788-0.297,0.788-0.297s1.328,2.205,2.234,2.087   S-540.016,48.751-540.016,48.751z"/><path display="inline" d="M-538,57.769c-0.703-0.628-1.766-3.894-1.766-3.894s-1.188,0.395-1.969,0.15s-3.078-2.813-3.078-2.813   s0.08,1.319-0.21,1.804c0.054,0.683,1.862,6.406,3.511,6.297S-538.703,58.234-538,57.769z"/><path display="inline" d="M-525.104,60.542C-524.521,60.667-525,63-525,63s-2.56,3.14-5.312,2.959   c-1.646-0.104-4.979-1.521-4.979-1.521l-1.083-2.188c0,0,1.354-3.292-0.468-4.915c-0.615,0.019-0.302,0.165-0.875,0.248   s-1.703-3.625-1.703-3.625s0.983,0.021,1.109-0.584S-530,62.688-525.104,60.542z"/><path display="inline" d="M-540.016,48.312c0,0-1.922-0.891-2.875-1.359c-0.094,0.672-1.141,1.969-1.141,1.969s1.328,1.969,1.844,2   C-541.448,50.912-540.016,48.312-540.016,48.312z"/><path display="inline" d="M-534.562,50.698c-0.797,0.052-2.62-1.229-2.62-1.229s0.433,2.047,0.183,2.406s-0.922,0.422-1.125,0.422   s-0.109,0.828-0.109,0.828s4.234,1.953,4.938,1.547C-534.234,54.109-534.469,51.656-534.562,50.698z"/><path display="inline" d="M-532.703,54.728c0,0,1.5-2,1.531-2.629c1.828,0.246,4.328-0.52,5.234-0.886   c0.203,0.538-0.062,3.46-0.891,4.147S-532.703,54.728-532.703,54.728z"/><path display="inline" d="M-533.042,54.854c-1.354,0.521-4.5-1.183-4.5-1.183s7.396,6.829,9.562,6.829   C-529.459,59.271-531.875,57.167-533.042,54.854z"/><path display="inline" d="M-525.873,55.333c0,0-0.253,0.062-0.691,0.225c-1,0.796-5.625-0.266-6.14-0.558   c0.098,0.875,4.682,5.417,5.057,5.5s2.083-0.021,2.746-0.271c0.65-0.021,0.442,2.104,0.442,2.104s3.021,2.125,4.688,1.812   c0.333-0.021,0.333,0.292,0.333,0.292s6.896-1.021,4.042-5.562c-1-0.479-1.188,0-1.938,0.125S-525.873,55.333-525.873,55.333z"/><path display="inline" d="M-543.092,45.69c0.259,0.207,0.321,1.041,0.321,1.041s2.611,1.249,2.979,1.271   c0.083-0.312,0.514-0.479,0.514-0.479s-0.056-0.458-0.285-0.875S-543.351,45.483-543.092,45.69z"/><path display="inline" d="M-537.063,49.021c0,0,1.271-2.188,1.438-2.75c0.688-3.375-0.354-4.375-0.719-4.354   s-1.678,3.042-2.136,3.552s-1.917,0.427-1.917,0.427s0.792,0.25,1.021,0.479s0.354,0.977,0.354,0.977s1.124,0.344,1.188,0.649   s0.604-0.062,0.771,0S-537.063,49.021-537.063,49.021z"/><path display="inline" d="M-536.855,49.167c0,0,2.354-1.762,2.958-2.214s2.292-2.286,2.229-3.536   c0.021-0.542-1.342-1.959-1.629-1.854s-0.371,1.188-1.871,2.984C-534.917,47.271-536.855,49.167-536.855,49.167z"/><path display="inline" d="M-532.876,41.558c0,0,1.375,0.527,1.479,1.985c1.146-1.292,2.042-3.954,1.604-5.321   s-3.562-1.565-3.625-1.008s1.084,1.641,1.229,2.099S-532.876,41.558-532.876,41.558z"/><path display="inline" d="M-538.688,38.222c0.042,0.342,1.062,0.467,1.833,1.509s0.354,1.938,0.354,1.938s1.375-0.063,1.312,2.479   c1.216-1.533,1.417-2.542,1.646-2.792s0.354-0.042,0.354-0.042s0.313-3.021-1.771-4S-538.73,37.879-538.688,38.222z"/><path display="inline" d="M-536.042,36.72c0.854,0.053,1.979,0.949,1.979,0.949s0.562,0.104,0-1.104s-2.458-0.771-2.562-0.479   S-536.165,36.662-536.042,36.72z"/><path display="inline" d="M-543.605,45c0,0-0.206-0.664-0.426-0.372s-1.199,0.438-1.595,0.479c-0.25-0.5-0.688-0.479-1.167-0.377   c-0.458-0.519,1.771-4.79,1.771-4.79s0.417-2.116,1.313-3.017s1.771,0.07,1.771,0.07s1.646,3.009,0.854,4.822   S-543.605,45-543.605,45z"/><path display="inline" d="M-541.192,37.96c0,0,1.502-0.683,2.502-0.289c-0.229,0.248-0.508,0.392-0.291,0.706   c0.562,0.458,2.435,1.375,2.342,3.396c-1.197,1.667-2.176,3.696-2.176,3.696s-1.458,0.137-2.229,0.325   c-0.833-0.417-2.063-0.325-2.063-0.325l-0.292-0.363c0,0,2.729-1.854,2.771-4.042S-541.192,37.96-541.192,37.96z"/><path display="inline" d="M-545.376,34.48c0.375,0.709-0.562,0.604-0.979,1.521c-2.562-0.5-5.271,4.573-5.271,4.573   s0.062-1.678,3.875-5.278c0.062-0.524-0.75-0.92-0.75-0.92S-545.751,33.771-545.376,34.48z"/><path display="inline" d="M-546.687,37.855l0.561-0.729c0,0,0.229-0.562-0.14-0.853c0.223-0.501,1.39-1.08,1.369-1.697   s1.937-0.43,2.104-0.096s-0.506,1.583-1.646,2.979C-544.876,36.126-546.687,37.855-546.687,37.855z"/><path display="inline" d="M-542.543,34.835c-0.083,0.583-0.854,1.583-0.854,1.583s1.646-0.618,2.084,1.253   c0.116-2.085,0.229-2.139,0-2.613S-542.46,34.252-542.543,34.835z"/><path display="inline" d="M-541.043,37.549c0,0-0.09-1.166,0.174-2.252s3.2,2.288,2.18,2.059S-541.043,37.549-541.043,37.549z"/><path display="inline" d="M-542.605,34.293c-0.896-0.771-2.458-0.157-2.458-0.157s2.868-3.656,4.194-3.864s1.764-0.271,1.889,0.188   s0.021,1.247-0.479,1.384s-0.396-0.238-0.792-0.259S-541.876,32.647-542.605,34.293z"/><path display="inline" d="M-545.376,34.136c-1.208-0.51-2.375,0-2.375,0s0.167-5.948,0.542-6.635s1.229-1.208,1.833-1.229   s2.188,2.896,1.875,3.354s-1.161-0.479-1.789-0.062S-544.646,33.334-545.376,34.136z"/><path display="inline" d="M-549.607,32.366c0,0-0.186,0.76-0.082,1.03c0.958,0.334,1.23,0.646,1.23,0.646s0.332,0.083,0.437,0   c-0.167-0.625,0.105-2.521,0.105-2.521s-0.439-0.5-1.001,0C-548.834,32.334-549.607,32.366-549.607,32.366z"/><path display="inline" d="M-541.271,34.668c0,0,1.036-2.375,0.938-2.708s0.75,0.279,1.104,0.244s0.909-1.931,0.298-2.202   s-1.34-0.188-1.34-0.188s0.354-2.146,0.729-2.5s0.51-0.521,1.067,0s1.35,10.39,0.391,9.403s-2.292-1.862-2.5-1.883   s-0.391,0.375-0.474,0.224S-541.271,34.668-541.271,34.668z"/><path display="inline" d="M-542.289,34.293c0,0,1.561-2.483,1.758-2.408s-0.531,1.678-0.879,2.596   C-541.806,34.396-542.289,34.293-542.289,34.293z"/><path display="inline" d="M-536.938,36.787c0,0-0.458-0.017-0.698,0.137c0.969-3.507-0.511-9.94-0.511-9.94   s4.396-5.607,5.354-5.566s1.542,0.584,1.917,1.375s-1.393,8.024-2.297,9.208s-1.994,2.75-3.14,3.562   C-537.208,35.479-536.938,36.787-536.938,36.787z"/><path display="inline" d="M-520.719,44.923c0.188-0.188,0.406,0,0.406,0s1.156-0.079,1.062,2.03s-4.125,3.203-4.125,3.203   l-0.562-0.688c0,0-1-1.156-3.656-1.265c0.688-0.11,0.906-1.376,0.906-1.376s5.031-0.265,5.531-0.671   S-520.906,45.111-520.719,44.923z"/><path display="inline" d="M-529.391,46.5c0.046,0.311-1.344,1.062-1.656,1.078s-2.609-0.539-2.609-0.539s1.08-0.827,1.094-1.18   C-531.969,46.047-530.844,46.438-529.391,46.5z"/><path display="inline" d="M-524.234,49.562c0,0-2.444-1.328-3.746-1.094s-3.083-0.688-3.083-0.688s-1.781-0.391-2.781-0.578   c-0.906,0.562-2.906,2.266-2.906,2.266s0.828,0.797,2.25,0.953c1.703-1.031,3.234,1.422,3.234,1.422s2.141,0.375,5.312-0.953   C-525.359,50-524.234,49.562-524.234,49.562z"/><path display="inline" d="M-528.813,45.156c-0.062,0.594-0.062,0.594-0.484,1.219c-0.73,0.075-3.094-0.719-3.094-0.719   s0.375-0.478,0.516-0.817C-531.031,45.031-530.344,45.219-528.813,45.156z"/><path display="inline" d="M-526.875,45.422c0,0,0.454,0.703,0.25,1.141c0.703-0.016,3.707-0.12,4.938-0.422   C-522.484,45.781-526.875,45.422-526.875,45.422z"/><path display="inline" d="M-519.516,48.109c0,0,0.422-0.438,0.438-0.906c2.203,0.453,2.062,1.953,2.406,2.578   c0.031,2.188-1.125,2.453-1.422,2.406s-0.094-2.17-0.188-2.64S-519.516,48.109-519.516,48.109z"/><path display="inline" d="M-520.75,44.547c-0.354,0.099-0.292,0.292-0.292,0.292s0.168,1.253-0.479,1.153   c-0.917-0.43-5.354-0.825-5.354-0.825s-1.5-1.021-1.708-0.917s-0.229,0.417-0.229,0.667c-0.667,0.251-2.853-0.25-2.853-0.25   s0.281-0.576,0.27-0.896c1.083-0.312,1.716-3.083,1.716-3.083S-521.292,40.375-520.75,44.547z"/><path display="inline" d="M-529.542,40.333c0,0,0.5-1.562-0.417-3.042c1.857-0.851,11.938-1.25,13.542-0.146   s2.188,1.688,1.938,2.729s-3.614,2.75-3.614,2.75s-1.927,0.562-3.24,0C-524.604,39.792-529.542,40.333-529.542,40.333z"/><path display="inline" d="M-533.312,38.146h-0.25c0,0,0.771,2.188,0.562,2.938c0.521-0.854,0.501-1.202,0.609-1.583   S-533.312,38.146-533.312,38.146z"/><path display="inline" d="M-518.541,50.51c-0.271,1.344,0.042,1.59,0.292,2.04c1.188,0.408,2.021-2.237,2.021-2.237   s4.021-0.042,4.396-0.312c-0.271,0.312,0,0.271,0,0.271s1.105-0.336,1.125,0.239c1.042,1.011,0.625,3.011,0.125,3.615   s-5.583,2.062-6.792,2.021s-5.917-1.418-5.917-1.418s0.833-0.332,0.875-0.79s-0.521-1.042-0.521-1.042s0.521-0.562,0.583-0.917   s-0.583-1.208-0.583-1.208S-519.229,51.02-518.541,50.51z"/><path display="inline" d="M-511.52,49.698c-0.104,0.198-0.104,0.198-0.104,0.198s0.813-0.041,0.979,0.261   c0.099,0.18,0.167,0.302,0.167,0.302s1.208,1.25,0.229,3.688c-0.458,0.646-4.562,1.833-4.562,1.833s4.407-0.479,5.146-1.75   s1.583-1.896,0.75-3.479S-511.416,49.5-511.52,49.698z"/><path display="inline" d="M-519.687,48.312c0.837,0.427,1,1.097,1.146,1.236s0,0.41,0,0.743c-0.95,0.471-4.562,0.292-4.562,0.292   l-0.188-0.188C-523.291,50.396-520.095,49.435-519.687,48.312z"/></g><g display="none"><g display="inline"><path d="M-435.875,27.625c-0.031,2.219,1.771,2.801,2.292,2.792s0.539-0.657,0.333-1s-0.768-1.214-0.708-1.583    s0.208-2.021,1.333-2.667C-435.281,24.656-435.777,26.457-435.875,27.625z M-434.25,29.229c0,0-0.979-1.125-0.834-1.688    s0.625-1.229,1.292-1.625C-434.812,27.062-434.25,29.229-434.25,29.229z"/><path d="M-436.688,24.188c0.191-0.016,0.5-0.359,0.5-0.359s0.922,0.297,1.102,0.109c0.273,0.281,1.43,0.672,1.617,0.797    s0.469-0.047,0.516-0.234s-0.094-0.406-0.172-0.5s-0.09,0.197-0.328,0c-0.281-0.609-1.688-1.469-2.172-1.469    s-0.5,0.594-0.703,0.828s-0.703-0.047-0.891,0.062S-437.266,24.188-436.688,24.188z"/><path d="M-444.625,32.641c0.273-0.3,6.578-7.219,7.812-8.328c-0.422,0.031-0.625-0.484-0.625-0.484s-6.75,7.453-6.969,7.516    s-0.25-0.297-0.391-0.125s0.062,0.547,0,0.766s-0.5,0.406-0.5,0.406S-444.898,32.94-444.625,32.641z"/><path d="M-448.505,39.688c0,0,1.441-3.734,1.749-4.167s2.272-2.833,1.917-2.688s-0.542-0.312-0.542-0.312s-2.02,3-2.271,3.125    s0,0.25,0,0.25s-1.249,2.937-1.292,3.479C-448.929,39.563-448.505,39.688-448.505,39.688z"/><path d="M-448.942,42.604c0.111,0.188,0.361-2.604,0.361-2.604s-0.458-0.187-0.479-0.312c-0.375,0.375-0.521,2.916-0.521,2.916    S-449.054,42.416-448.942,42.604z"/><path d="M-448.977,45.854c0,0,0.125-2.938,0-3.062s-0.604,0-0.604,0s-0.145,2.812,0.188,3.062S-448.977,45.854-448.977,45.854z"/><path d="M-448.921,46.062c-0.159,0.312-0.43,0.083-0.43,0.083s0.194,2.063,0.43,2.271s0.34,0,0.34,0    S-448.762,45.749-448.921,46.062z"/><path d="M-442.281,7.594c0.344,0.094,0.625,2.812,0.625,2.812h0.312c0,0-0.312-2.844-0.031-3.188    c0.625-0.125,0.875-0.875,0.875-0.875s-1.249,0.408-1.531,0.5s-1.094-0.312-1.094-0.312S-442.625,7.5-442.281,7.594z"/><path d="M-446.83,52.811c0.292,0.062,0.333,0.021,0.229-0.188s-1.604-3.792-1.875-3.938c-0.354,0-0.354,0-0.354,0    S-447.122,52.749-446.83,52.811z"/><path d="M-441.208,12.375c0.271,0.042,0.312-0.167,0.312-0.167s-0.162-1.471-0.396-1.667c-0.5-0.042-0.521,0.167-0.521,0.167    S-441.479,12.333-441.208,12.375z"/><path d="M-440.609,12.141c0,0.125-0.305,0.391-0.305,0.391s-0.258,0.125-0.555,0s0.958,2.012,1.109,2.328s0.375,0.422,0.516,0.094    S-440.609,12.016-440.609,12.141z"/><path d="M-439.969,15.312c-0.203-0.031-0.309-0.137-0.516-0.281s0.328,2.703,0.328,2.703s0.109,0.328,0.25,0.234    s0.328-0.312,0.328-0.312s0.125-3.219,0-3S-439.766,15.344-439.969,15.312z"/><path d="M-440.532,17.828c-0.155,0.078,0.142,0.562,0.376,0.891s0.327,3.703,0.327,3.703s0.313,0.141,0.438,0s0.234-4.047,0-4.734    c-0.084,0.087-0.51,0.551-0.637,0.469S-440.377,17.75-440.532,17.828z"/><path d="M-439.188,22.312c0,0-0.156,0.359-0.438,0.344s-0.469-0.344-0.469-0.344s-0.312,1.031-0.203,1.406    s-1.219,3.922-1.172,4.219c0.578-0.719,1.375-1.453,1.375-1.453s1-2.984,1.438-3.453s1.172-2.062,0.734-1.859    s-0.844,1.344-1,1.312s-0.141-0.797-0.266-0.516S-439.188,22.312-439.188,22.312z"/><path d="M-442,31.042c0.188-0.229,0.125-0.083,0.271,0s1.333-2.667,1.333-2.667l-1.833,1.833c0,0-0.729,1.708-0.375,1.646    C-442.375,31.479-442.188,31.271-442,31.042z"/><path d="M-441.47,31.084c0,0-0.259,0.417-0.467,0.167c-0.281,0.135-0.625,0.812-0.625,0.812s6.208,3.979,7.125,3.917    c-0.25-0.854-0.125-2.104,0.271-2.604C-436.187,33.543-441.47,31.084-441.47,31.084z"/><path d="M-437.812,43.479c0.312-1.333,0.896-1.854,0.896-1.854s-4.146-0.917-7.229-0.167c-1.375-0.25-4.021,0.25-4.188,0.458    s0.292,0.583,0.562,0.552s0.037,0.281,0.081,0.531S-440.604,42.458-437.812,43.479z"/><path d="M-447.875,42.613c-0.204,0.125-0.438-0.175-0.641-0.363c-0.359,0.234,0.147,6.258,0.147,6.258s0.416,0.523,0.679,1.326    s0.174-6.412-0.107-6.646C-448.031,43.203-447.671,42.488-447.875,42.613z"/><path d="M-448.391,50.141c-0.146,0.098,0.109,3.438,0.109,3.438h0.592c0,0,0.173-1.944,0-1.859S-448.247,50.349-448.391,50.141z"/><path d="M-447.547,55.031h-0.766l0.109,0.766l0.656,1.594c0,0,0.047-0.34,0.172-0.203s1.328,1.469,1.391,1.297    s-1.5-1.625-1.391-1.922S-447.547,55.031-447.547,55.031z"/><path d="M-438.891,54.391c0.016-0.422-9.598-0.812-9.939-0.734s-0.951,0.469-0.779,0.625s0.578-0.172,0.703,0.031    s-0.203,0.234-0.234,0.531s0.378,0.328,0.705,0.094c0.858-0.234,9.624,1.594,9.624,1.594S-438.906,54.812-438.891,54.391z"/><path d="M-449.351,54.844c0.149-0.203,0.444-0.531,0.288-0.406s-0.577,0-0.577,0S-449.5,55.047-449.351,54.844z"/><path d="M-442.167,70.958c0.187-0.063,1.501,0.896,1.625,0.708s-1.375-1.041-1.833-1.667s-4.722-12.51-5.238-12.417    c-0.215-0.083-0.823-1.787-0.823-1.958s0-0.422,0-0.422s-0.442,0.156-0.582,0.078s-0.451-0.25-0.451-0.25l2.321,5.078    c0,0,2.132,4.484,2.179,5.328s1.845,6.334,2.177,6.229S-442.353,71.022-442.167,70.958z"/><path d="M-442.396,76.833c0.292-0.088,0.208-0.208,0.417-0.292s0.338,0.271,0.375,0s-0.708-3.511-0.625-3.917    s0.823,1.344,0.771,0.979s-0.713-2.479-0.771-2.333s-0.438,0.562-0.438,0.562S-442.688,76.922-442.396,76.833z"/><path d="M-441.734,81.203c0.141-0.078,0.13-4.661-0.219-4.484s-0.312,0.266-0.312,0.266s-0.406,3.922-0.281,4.117    s0.266-0.07,0.485-0.102S-441.875,81.281-441.734,81.203z"/><path d="M-442.281,81.312c-0.111,0.278-0.25,3.25-0.141,3.469s0.406,0.234,0.484,0s0-3.469,0-3.469S-442.17,81.035-442.281,81.312    z"/><path d="M-442.182,87.844c0.063,0.116,0.497,1.328,0.432,0.797s-0.371-3.516-0.432-3.547s-0.279-0.143-0.279-0.143    s-0.243,2.939-0.109,3.064S-442.245,87.728-442.182,87.844z"/><path d="M-440.953,91.859c-0.281-0.141-1.094-3.406-1.094-3.406L-442.25,88c0,0-0.048,0.047-0.211,0.219s-0.039,4.25,0.211,4.234    s0.016-0.547,0.25-0.594s2.422,0.766,2.062,0.406S-440.672,92-440.953,91.859z"/><path d="M-448.301,62.792c0.094-0.271,0.379,0.542,0.611,0.208s-0.205-4.25-0.205-4.25s-0.292-0.312-0.418-0.75    c-0.332,0.229-0.395,4.896-0.395,4.896S-448.395,63.063-448.301,62.792z"/><path d="M-447.622,69.125c0.143-0.229,0.56,0.479,0.664,0.219s-0.688-6.115-0.938-6.094s-0.417-0.271-0.417-0.271l-0.166,0.102    c0,0,0.375,6.335,0.688,6.481S-447.765,69.354-447.622,69.125z"/><path d="M-445.812,74.521c-0.204-0.287-1.688-5.208-1.688-5.208s0.074,0.51-0.104,0.521s0.417,2.042,0.417,2.042    s1.043,3.651,1,3.5s-0.125,0.245,0,0.521s0.23-0.526,0.333-0.812s3.079,0.683,2.583,0.229S-445.608,74.808-445.812,74.521z"/><path d="M-431.984,24.156c-0.25-0.094-0.625,0.422-0.828,0.39s-0.131,0.392-0.131,0.392s0.35,0,0.491,0.14    c0.313,0.007,1.094-0.233,1.094-0.233s-0.609-0.125-0.625-0.297S-431.734,24.25-431.984,24.156z"/><path d="M-431.875,24.546c0,0,0.427,0.277,0.609,0.231s0.609-0.808,1.078-0.949s-1.25-0.016-1.469,0.234    S-431.875,24.546-431.875,24.546z"/><path d="M-432.469,25.281c0,0-1.039,0.879-1.297,2.656c0.121,0.57,0.688,1.406,0.688,1.406s0.297,0.688,0.134,0.953    s-1.041,0.25-1.041,0.25s-0.047,0.781,0.344,0.781s3.058,0.046,4.047,0.25c0.031,0.006,0.055-0.011,0.082-0.017    c0.005,0,0.008,0.003,0.012,0.002c0.989-0.204,3.656-0.25,4.047-0.25s0.344-0.781,0.344-0.781s-0.878,0.016-1.041-0.25    s0.134-0.953,0.134-0.953s0.567-0.836,0.688-1.406c-0.258-1.777-1.297-2.656-1.297-2.656s-0.896-0.1-1.188-0.344    s-0.958-0.953-1.174-0.984c-0.129-0.019-0.38,0.574-0.563,1.056c-0.182-0.479-0.43-1.06-0.558-1.042    c-0.216,0.031-0.883,0.74-1.174,0.984S-432.469,25.281-432.469,25.281z"/><path d="M-433.109,23.77c0.094,0.051,0.048,0.035,0.166,0.183s1.147-1.562,1.415-1.578s1.107-0.391,1.217-0.656    s-2.016,0.453-2.391,0.766s-0.875,1.062-0.875,1.062l0.234,0.314C-433.344,23.861-433.203,23.719-433.109,23.77z"/><path d="M-425.135,27.819c0.059,0.369-0.503,1.24-0.708,1.583s-0.188,0.99,0.333,1s2.323-0.572,2.292-2.792    c-0.098-1.167-0.594-2.968-3.25-2.458C-425.343,25.798-425.194,27.45-425.135,27.819z M-424.009,27.527    c0.146,0.562-0.834,1.688-0.834,1.688s0.562-2.167-0.458-3.312C-424.634,26.298-424.155,26.965-424.009,27.527z"/><path d="M-425.968,23.986c-0.078,0.094-0.219,0.312-0.172,0.5s0.328,0.359,0.516,0.234s1.344-0.516,1.617-0.797    c0.18,0.188,1.102-0.109,1.102-0.109s0.309,0.343,0.5,0.359c0.578,0,0.719-0.656,0.531-0.766s-0.688,0.172-0.891-0.062    s-0.219-0.828-0.703-0.828s-1.891,0.859-2.172,1.469C-425.878,24.183-425.89,23.892-425.968,23.986z"/><path d="M-422.281,24.298c1.234,1.109,7.539,8.028,7.812,8.328s0.672-0.25,0.672-0.25s-0.438-0.188-0.5-0.406s0.141-0.594,0-0.766    s-0.172,0.188-0.391,0.125s-6.969-7.516-6.969-7.516S-421.859,24.33-422.281,24.298z"/><path d="M-414.255,32.819c-0.355-0.146,1.609,2.255,1.917,2.688s1.749,4.167,1.749,4.167s0.424-0.124,0.438-0.312    c-0.042-0.542-1.292-3.479-1.292-3.479s0.25-0.125,0-0.25s-2.271-3.125-2.271-3.125S-413.9,32.965-414.255,32.819z"/><path d="M-410.151,42.589c0.111-0.188,0.639,0,0.639,0s-0.146-2.542-0.521-2.916c-0.021,0.125-0.479,0.312-0.479,0.312    S-410.262,42.777-410.151,42.589z"/><path d="M-409.512,42.777c0,0-0.479-0.125-0.604,0s0,3.062,0,3.062s0.083,0.25,0.417,0S-409.512,42.777-409.512,42.777z"/><path d="M-409.742,46.131c0,0-0.271,0.229-0.43-0.083s-0.34,2.354-0.34,2.354s0.104,0.208,0.34,0S-409.742,46.131-409.742,46.131z    "/><path d="M-417.718,7.205c0.281,0.344-0.031,3.188-0.031,3.188h0.312c0,0,0.281-2.719,0.625-2.812s0.844-1.062,0.844-1.062    s-0.812,0.405-1.094,0.312s-1.531-0.5-1.531-0.5S-418.343,7.08-417.718,7.205z"/><path d="M-410.617,48.672c-0.271,0.146-1.771,3.729-1.875,3.938s-0.062,0.25,0.229,0.188s2-4.125,2-4.125    S-410.263,48.672-410.617,48.672z"/><path d="M-418.198,12.194c0,0,0.042,0.208,0.312,0.167s0.604-1.667,0.604-1.667s-0.021-0.208-0.521-0.167    C-418.036,10.724-418.198,12.194-418.198,12.194z"/><path d="M-418.734,14.845c0.151-0.316,1.406-2.453,1.109-2.328s-0.555,0-0.555,0s-0.305-0.266-0.305-0.391    s-0.906,2.484-0.766,2.812S-418.885,15.162-418.734,14.845z"/><path d="M-419.187,17.955c0.141,0.094,0.25-0.234,0.25-0.234s0.535-2.847,0.328-2.703s-0.312,0.25-0.516,0.281    s-0.266-0.438-0.391-0.656s0,3,0,3S-419.328,17.861-419.187,17.955z"/><path d="M-419.264,22.408c0,0,0.093-3.375,0.327-3.703s0.531-0.812,0.376-0.891s-0.378,0.246-0.505,0.328    s-0.552-0.381-0.637-0.469c-0.234,0.688-0.125,4.594,0,4.734S-419.264,22.408-419.264,22.408z"/><path d="M-419,26.47c0,0,0.797,0.734,1.375,1.453c0.047-0.297-1.281-3.844-1.172-4.219S-419,22.298-419,22.298    s-0.188,0.328-0.469,0.344s-0.438-0.344-0.438-0.344s0.125-0.062,0-0.344s-0.109,0.484-0.266,0.516s-0.562-1.109-1-1.312    s0.297,1.391,0.734,1.859S-419,26.47-419,26.47z"/><path d="M-417.364,31.028c0.146-0.083,0.083-0.229,0.271,0s0.375,0.438,0.604,0.812c0.354,0.062-0.375-1.646-0.375-1.646    l-1.833-1.833C-418.698,28.361-417.51,31.111-417.364,31.028z"/><path d="M-416.531,32.049c0,0-0.344-0.677-0.625-0.812c-0.208,0.25-0.467-0.167-0.467-0.167s-5.283,2.459-6.304,2.292    c0.396,0.5,0.521,1.75,0.271,2.604C-422.74,36.028-416.531,32.049-416.531,32.049z"/><path d="M-421.281,43.465c2.792-1.021,9.833-0.229,9.877-0.479s-0.189-0.562,0.081-0.531s0.729-0.344,0.562-0.552    s-2.812-0.708-4.188-0.458c-3.083-0.75-7.229,0.167-7.229,0.167S-421.593,42.132-421.281,43.465z"/><path d="M-411.296,43.173c-0.281,0.234-0.371,7.449-0.107,6.646s0.679-1.326,0.679-1.326s0.506-6.024,0.147-6.258    c-0.203,0.188-0.437,0.487-0.641,0.363S-411.062,43.189-411.296,43.173z"/><path d="M-411.404,51.705c-0.173-0.085,0,1.859,0,1.859h0.592c0,0,0.256-3.339,0.109-3.438    C-410.846,50.335-411.231,51.79-411.404,51.705z"/><path d="M-411.718,57.173c0.125-0.137,0.172,0.203,0.172,0.203l0.656-1.594l0.109-0.766h-0.766c0,0-0.281,1.234-0.172,1.531    s-1.453,1.75-1.391,1.922S-411.843,57.31-411.718,57.173z"/><path d="M-410.657,54.923c0.327,0.234,0.736,0.203,0.705-0.094s-0.359-0.328-0.234-0.531s0.531,0.125,0.703-0.031    s-0.438-0.547-0.779-0.625s-9.955,0.312-9.939,0.734s-0.078,2.141-0.078,2.141S-411.515,54.689-410.657,54.923z"/><path d="M-410.031,54.423c-0.156-0.125,0.139,0.203,0.288,0.406s0.289-0.406,0.289-0.406S-409.875,54.548-410.031,54.423z"/><path d="M-410.657,55.189c0,0,0,0.25,0,0.422s-0.608,1.875-0.823,1.958c-0.516-0.094-4.779,11.791-5.238,12.417    s-1.958,1.478-1.833,1.667s1.438-0.771,1.625-0.708s0.292,0.603,0.625,0.708s2.13-5.385,2.177-6.229s2.179-5.328,2.179-5.328    l2.321-5.078c0,0-0.311,0.172-0.451,0.25S-410.657,55.189-410.657,55.189z"/><path d="M-416.864,71.257c-0.057-0.146-0.718,1.969-0.771,2.333s0.687-1.386,0.771-0.979s-0.662,3.646-0.625,3.917    s0.167-0.083,0.375,0s0.125,0.203,0.417,0.292s0.271-5,0.271-5S-416.807,71.403-416.864,71.257z"/><path d="M-417.14,76.705c-0.349-0.177-0.359,4.406-0.219,4.484s0.107-0.234,0.327-0.203s0.36,0.297,0.485,0.102    s-0.281-4.117-0.281-4.117S-416.791,76.881-417.14,76.705z"/><path d="M-417.156,81.298c0,0-0.078,3.234,0,3.469s0.375,0.219,0.484,0s-0.03-3.191-0.141-3.469S-417.156,81.298-417.156,81.298z"/><path d="M-416.911,85.08c-0.061,0.031-0.368,3.016-0.432,3.547s0.369-0.681,0.432-0.797s0.255,0.297,0.389,0.172    s-0.109-3.064-0.109-3.064S-416.85,85.048-416.911,85.08z"/><path d="M-416.843,87.986l-0.203,0.453c0,0-0.812,3.266-1.094,3.406s-0.656,0.047-1.016,0.406s1.828-0.453,2.062-0.406    s0,0.578,0.25,0.594s0.375-4.062,0.211-4.234S-416.843,87.986-416.843,87.986z"/><path d="M-411.199,58.736c0,0-0.438,3.917-0.205,4.25s0.518-0.479,0.611-0.208s0.406,0.104,0.406,0.104s-0.062-4.667-0.395-4.896    C-410.907,58.424-411.199,58.736-411.199,58.736z"/><path d="M-411.198,63.236c-0.25-0.021-1.042,5.833-0.938,6.094s0.521-0.448,0.664-0.219s-0.143,0.583,0.169,0.438    s0.688-6.481,0.688-6.481l-0.166-0.102C-410.781,62.966-410.948,63.257-411.198,63.236z"/><path d="M-411.594,69.299c0,0-1.484,4.921-1.688,5.208s-2.046,0.338-2.542,0.792s2.48-0.516,2.583-0.229s0.209,1.088,0.333,0.812    s0.043-0.672,0-0.521s1-3.5,1-3.5s0.594-2.032,0.417-2.042S-411.594,69.299-411.594,69.299z"/><path d="M-427.734,24.83c0,0,0.78,0.241,1.094,0.233c0.141-0.14,0.491-0.14,0.491-0.14s0.072-0.424-0.131-0.392    s-0.578-0.483-0.828-0.39s0.016,0.219,0,0.391S-427.734,24.83-427.734,24.83z"/><path d="M-427.828,24.763c0.182,0.046,0.609-0.231,0.609-0.231s0-0.233-0.219-0.483s-1.938-0.375-1.469-0.234    S-428.01,24.716-427.828,24.763z"/><path d="M-424.197,33.131c-0.245-0.516-0.498-0.434-0.646-0.562s-0.104-1.146-0.264-1.083s-4.132,0.167-4.403,0.357    c-0.014,0.01-0.027,0.05-0.042,0.106c-0.011-0.037-0.021-0.084-0.032-0.092c-0.271-0.19-4.243-0.294-4.403-0.357    s-0.115,0.955-0.264,1.083s-0.401,0.047-0.646,0.562c-0.656,1.498-0.396,1.962-0.396,2.835s0,1.706,0,1.706    s-0.062,0.958,0.25,1.708s0.667,1.438,1.146,1.396s1.458,0.208,1.458,0.208s1.132,0.562,1.333,0.438s0.333-0.25,0.604-0.375    c0.333,0.083,0.376,1.167,0.917,1c0.541,0.167,0.658-0.931,0.991-1.014c0.271,0.125,0.403,0.25,0.604,0.375    s1.333-0.438,1.333-0.438s0.979-0.25,1.458-0.208s0.833-0.646,1.146-1.396s0.25-1.708,0.25-1.708s0-0.833,0-1.706    S-423.542,34.628-424.197,33.131z"/><path d="M-420.676,58.299c0.323-0.203,0.333-3.391,0.271-3.833s0.093-0.765,0.125-1.021s0.094-0.38,0-1.104    s-0.125-2.354-0.125-2.354s0-2.75,0-3.292c0-0.283-0.154-1.042-0.3-1.562v-0.001c0,0-0.003-0.01-0.004-0.012    c-0.05-0.175-0.098-0.32-0.14-0.41c-0.117-0.322-0.291-0.752-0.473-1.015c-0.317-0.459-0.125-0.64-0.354-1.096    s-0.505-0.752-0.938-1.175s-1.625-0.417-1.625-0.417s0.854,0.387,1.562,1.058c0.53,0.502,1.35,2.158,1.704,3.192    c-0.021,1.079-0.105,2.766,0.005,3.166c0.125,0.453-0.188,1.266-0.354,1.562s-1.255,0.547-1.396,0.762s-3.594,1.707-3.938,1.738    s-0.812-0.328-0.917-0.625s0.104-1.188,0.271-1.625s3.974-3.969,4.208-5.219c0.125-0.625,0.938-1.5,0.75-1.989    s-0.812-0.589-0.792-0.72s-1.63-1.447-1.938-1.405s-0.427,0.036-0.521,0.146s0.938,1.203,1,1.542s-0.578,1.505-0.771,1.729    s-0.604,0.323-0.812,0.25s-0.745-0.787-0.792-0.604s0.344,0.958,0.354,1.396s-1.213,3.594-1.458,3.771s-0.271,0.167-0.438,0    s-0.13-5.021,0.208-5.833s1.131-1.563,1.301-1.83s-0.812,0.314-1.01,0.184s-0.38-0.308-0.583-0.25s-0.281,0.771-0.5,0.905    s-0.417,0-0.417,0s-0.271,0.148-0.49,0.014s-0.297-0.847-0.5-0.905s-0.386,0.12-0.583,0.25s-1.041-0.449-0.871-0.183    s0.824,1.016,1.163,1.829s0.375,5.667,0.208,5.833s-0.193,0.177-0.438,0s-1.468-3.333-1.458-3.771s0.401-1.213,0.354-1.396    s-0.583,0.531-0.792,0.604s-0.62-0.026-0.812-0.25s-0.833-1.39-0.771-1.729s1.094-1.433,1-1.542s-0.214-0.104-0.521-0.146    s-1.958,1.273-1.938,1.405s-0.604,0.231-0.792,0.72s0.625,1.364,0.75,1.989c0.234,1.25,4.042,4.781,4.208,5.219    s0.375,1.328,0.271,1.625s-0.573,0.656-0.917,0.625s-3.797-1.523-3.938-1.738s-1.229-0.465-1.396-0.762s-0.479-1.109-0.354-1.562    c0.11-0.4,0.026-2.087,0.005-3.166c0.354-1.035,1.173-2.69,1.704-3.192c0.708-0.671,1.562-1.058,1.562-1.058    s-1.193-0.006-1.625,0.417s-0.708,0.718-0.938,1.175s-0.037,0.637-0.354,1.096c-0.182,0.263-0.356,0.693-0.473,1.016    c-0.042,0.089-0.09,0.234-0.14,0.408c0,0.003-0.004,0.013-0.004,0.013v0.001c-0.146,0.52-0.3,1.278-0.3,1.562    c0,0.542,0,3.292,0,3.292s-0.031,1.631-0.125,2.354s-0.031,0.848,0,1.104s0.187,0.579,0.125,1.021s-0.052,3.631,0.271,3.833    s0.099-0.865,0.188-1.229s-0.021-3.218,0.104-3.542s-0.162-0.963,0.146-1.042s1.13,0.344,1.375,0.688s1.427,0.99,1.812,1.167    s1.833,0.115,2.25,0.208s2.025,1.172,2.104,1.438s-0.297,2.217-0.375,2.499s0.218,0.611,0.125,0.751s-0.496,0.532-0.958,0.312    s-4.1-0.912-4.375-0.792s-2.266-0.546-2.458-0.104c-0.111,0.256,0.045,1.971,0.197,3.373c0.036,1.008,0.181,2.114,0.188,2.382    c0.016,0.547,0.344,1.938,0.641,2.531s0.766,1.172,1.219,1.75s3.875,3.578,4.453,3.93c0.428,0.26,1.493,0.795,1.855,0.906v0.056    c0,0,0.165,0.192,0.373-0.116c0.214,0.336,0.385,0.13,0.385,0.13v-0.084c0.363-0.111,1.428-0.646,1.855-0.906    c0.578-0.352,4-3.352,4.453-3.93s0.922-1.156,1.219-1.75s0.625-1.984,0.641-2.531c0.008-0.267,0.153-1.375,0.188-2.382    c0.152-1.402,0.309-3.117,0.197-3.373c-0.192-0.442-2.183,0.224-2.458,0.104s-3.912,0.573-4.375,0.792s-0.865-0.172-0.958-0.312    s0.203-0.469,0.125-0.751s-0.454-2.234-0.375-2.499s1.687-1.344,2.104-1.438s1.864-0.032,2.25-0.208s1.567-0.823,1.812-1.167    s1.067-0.766,1.375-0.688s0.021,0.718,0.146,1.042s0.015,3.177,0.104,3.542S-421,58.501-420.676,58.299z M-437.219,66.469    c-0.172-0.203-0.516-2.188-0.422-2.516c0.055-0.191,0.33-1.243,0.364-2.183c0.123,0.149,0.295,0.257,0.568,0.25    c0.943-0.021,3.197-0.208,3.75-0.083s1.129,0.297,1.396,0.562c0.219,0.218,0.7,1.959,1.117,2.609    c0.076,0.335,0.185,0.96-0.007,1.141c-0.266,0.25-0.594,0.297-0.953,0.188s-2.16,0.344-2.608,0.203s-1.376-0.625-1.845-0.578    S-437.047,66.672-437.219,66.469z M-431.156,72.703c-0.314-0.312-4.422-4.031-4.188-4.156s0.297,0.234,0.844,0.406    s1.359-0.25,1.703-0.219s2.375,1.01,2.438,1.281c0.037,0.161,0.235,1.224,0.435,2.136l-0.001,1.271    C-430.327,73.093-430.858,72.999-431.156,72.703z M-427.937,72.689c-0.298,0.296-0.83,0.389-1.23,0.719l-0.001-1.271    c0.2-0.912,0.397-1.975,0.435-2.136c0.062-0.271,2.094-1.25,2.438-1.281s1.156,0.391,1.703,0.219s0.609-0.531,0.844-0.406    S-427.623,72.377-427.937,72.689z M-427.53,62.486c0.267-0.266,0.843-0.438,1.396-0.562s2.807,0.062,3.75,0.083    c0.273,0.006,0.445-0.101,0.568-0.25c0.034,0.94,0.309,1.992,0.364,2.183c0.094,0.328-0.25,2.312-0.422,2.516    s-0.891-0.359-1.359-0.406s-1.396,0.438-1.845,0.578s-2.249-0.312-2.608-0.203s-0.688,0.062-0.953-0.188    c-0.192-0.181-0.083-0.806-0.007-1.141C-428.23,64.444-427.749,62.704-427.53,62.486z"/><path d="M-427.564,22.361c0.268,0.016,1.297,1.726,1.415,1.578s0.072-0.132,0.166-0.183s0.234,0.092,0.234,0.092l0.234-0.314    c0,0-0.5-0.75-0.875-1.062s-2.5-1.031-2.391-0.766S-427.832,22.345-427.564,22.361z"/></g></g><g display="none"><path display="inline" d="M-314.125,56.75c0,0-0.082-1.029,0.292-1.167s0.771-0.178,1.083-0.75s0.897-1.752,1.458-2.125   s2.167-1.542,4.208-2.125c4.375-0.833,9.875,2.417,12.125,3.083c-0.333,0.792-3.833,4.167-4.333,4.583s-3.042,1.042-4.25,1.25   s-4.292,0-5.958-1.083S-314.125,56.75-314.125,56.75z"/><path display="inline" d="M-298.25,58.031c0,0,3.969-3.875,3.969-4.719c0.307-1.078,1.312-3.562,1.75-3.906   c1.031-0.625,1.875,1.875,1.875,2.531s-0.562,1.844-2,3.438S-298.25,58.031-298.25,58.031z"/><path display="inline" d="M-298.906,58.562c0,0-4.367,1.497-5.188,1.438s-2.156-0.156-2.156-0.156s9.376,8.011,10.469,8.594   c0.614,0.48,9.01,3.999,10.094,4.438s11.896,2.854,12.625,3s1.188-0.229,1.625-0.312s0.521,0.208,0.812,0s-0.25-0.438,0-0.625   s1.842-3.114,1.375-4s-1.753-3.565-2.75-3.719s-4.917-0.552-10.562-3.281S-298.906,58.562-298.906,58.562z"/><path display="inline" d="M-271.25,75.908c0,0-0.672,0.326-1.531,0.311s-12.386-2.724-13.031-3s-6.719-2.875-6.719-2.875   s9.875,5.875,15.781,6.438C-273.562,77.312-271.25,75.908-271.25,75.908z"/><path display="inline" d="M-310,58.562c0,0-3.875-1.25-4.344-1.469s-0.219-0.594-0.219-0.594s-5.646,0.013-6.5-0.156   s-3.625-0.719-3.625-0.719s-11.125,1.25-13.781,4.344s-0.812,5.906-0.344,7.062s4,3.5,4.906,3.469s6.936-1.9,7.719-1.875   s7.095,0.411,7.875,0.25s2.969-0.498,4.5-1.64S-310,58.562-310,58.562z"/><path display="inline" d="M-333.458,70.75c0,0,6.5-1.854,7.167-1.771s7.15,0.364,7.792,0.208s2.156-0.5,3.594-0.875   c-0.156,0.484-7.031,2.812-10.469,2.438C-327.031,70.531-333.458,70.75-333.458,70.75z"/><path display="inline" d="M-314.375,55.625c0.084,0.188-0.219,0.406-0.219,0.406s-5.375,0.031-5.781-0.203   s-3.562-0.547-4.094-0.609s-1.156,0.188-1.156,0.188s-8.419-2.171-9.188-2.594s-2.701-1.423-3.656-2.365   s-12.198-11.99-12.094-12.479s0.958-0.844,1.25-0.812s0.708-0.511,1.219-0.625s4.344,2.51,4.781,3.156s5.104,2.354,6.375,2.625   S-314.459,55.438-314.375,55.625z"/><path display="inline" d="M-350.766,38.109c0.391,0.938,11.026,11.993,11.922,12.391s-3.344-1.5-4.5-2.312   s-6.407-6.062-7.219-7.312S-351.183,37.899-350.766,38.109z"/><path display="inline" d="M-305.958,50c-2.958,0.083-4.963,2.222-5.479,2.375c-0.229-0.458,0.796-6.583,1.083-7.417   s1.646-4.896,2.104-5.104s2.25,3.917,2.604,5.125S-304.938,46.979-305.958,50z"/><path display="inline" d="M-305.5,50c0,0,3.75,0.375,5,1.062c0.156-2.531-0.318-5.882-0.531-6.656s-2.514-9.147-2.906-10.25   s-0.392-1.103-1.562-2.188c0.281,3.312-2.562,7.344-2.562,7.344s2.719,3.531,3.062,6.798C-304.781,48-305.5,50-305.5,50z"/><path display="inline" d="M-304.791,31.042c0,0,0.044,1.162,0.246,1.333s0.196,0.223,0.374,0.468   c0.203,0.281,3.266,9.266,3.578,11.891s0.553,6.328,0.553,6.328l1.333,0.646c0,0,0.958-8,0-11.125S-304.791,31.042-304.791,31.042z   "/><path display="inline" d="M-305.125,31.646c0,0,0.031-1.266,0.25-1.292s0.156-1.646-0.812-1.75   c-1.406-0.136-5.036,3.084-6.292,4.208c-6.677,7.125-5.655,14.397-5.521,15.479s0.266,4.313,0.625,5.042s2.742,1.875,2.742,1.875   s0.373,0.045,0.674-0.199s1.229-2.232,1.5-2.426c-0.058-0.881,0.845-7.474,1.167-7.958c0.369-1.547,4.322-9.313,4.541-10.208   c0.281-0.495,0.24-3.057,0.542-3.167S-305.125,31.646-305.125,31.646z"/><path display="inline" d="M-316.125,38.092c1.834-6.175,1.332-5.634,0.375-9.758s-3.332-6.708-5.458-6.667   c-0.624-0.083-0.543-0.416-0.833-0.667s-0.792,0.333-0.792,0.333s-5.043,0.958-7.958,6s-1.709,8.042-1.208,10.375   s3.625,8.833,3.625,8.833l10.741,6.5C-317.634,53.042-319.709,41.35-316.125,38.092z"/><path display="inline" d="M-315.249,36.292c0,0,0.819-2.833,0.889-4.083s-0.889-4.25-0.889-4.25s3.667-5.125,9.25-5.208   c2.375,0.292,4.292-0.166,4.792,0.167s1.125-0.375,1.125-0.375s4.312,4.512,4.208,5.417s-1.167,2.292-1.625,2.167   s-1.041,0.084-1.708,0.917s0.125,3.458,0.125,3.458s0.488,2.048,0.292,4.208c-1.833-4.208-5.755-8.083-5.755-8.083l0.28-0.375   c0,0,0.35-1.583-1.296-2.375C-310.707,28.584-315.249,36.292-315.249,36.292z"/><path display="inline" d="M-291.041,49.583c0,0,1.291-8.249,1.792-9.292s2.958-11.208,3.375-11.875s1.249-1.125,1.792-1   s0.041,0.75,0,2.167s-2.75,8.652-3.292,10.264s0.583,3.695-0.188,6.987s-1.646,4.292-2.229,5.875s-1.542,2.083-1.542,2.083   s0.875-1.75,1.042-2.75S-291.041,49.583-291.041,49.583z"/><path display="inline" d="M-286.083,27.75c0.392-0.187-8.833-0.729-9.125,0.25s-0.564,1.676-1.625,2.417   c-1.084-0.021-0.896,0.033-1.75,0.626s0.959,6.061,0,8.416c0.208,0.396,0.127,0.687,0.5,1.458   c0.915,3.625-0.167,10.792-0.167,10.792s2.19,0.917,3.459,1.333c0.332-2.375,2.064-4.376,2.458-4.417s0.75,0.417,0.75,0.417   s1.337-8.084,1.667-8.646S-286.475,27.936-286.083,27.75z"/><path display="inline" d="M-283.666,29.793c0,2-3.083,9.458-3.333,10.625s0.292,2.167,0.25,4.625   c0.417,2.333-2.708,8.626-2.708,8.626s9.083-6.793,9.583-9.084c0.292-0.792-0.5-1.749,0.167-2.854s3.625-2.688,2.542-4.73   s-5.369-4.387-5.583-5.25S-283.665,27.793-283.666,29.793z"/><path display="inline" d="M-297.292,58.479c0,0,6.166-2.395,7.042-3.688c2.833-1,4.945,0.061,7.056,0.218S-277,57.833-276,58.562   s-1.208,3.521-2.667,3.188s-5.451,0.709-6.417,0.417S-297.292,58.479-297.292,58.479z"/><path display="inline" d="M-284.625,62.583l5.458-0.542h0.625c0,0-1,0.875-2.208,1.021S-284.625,62.583-284.625,62.583z"/></g><g display="none"><path display="inline" d="M-184.938,48.938c-0.219,0.312-0.5,2.062,0,2.5s1.437-1.625,1.125-1.906S-184.719,48.625-184.938,48.938z   "/><path display="inline" d="M-183.75,48.156c-0.281,0.062-0.375,0.625,0,1.156s1.282,0.516,1.344,0.188S-183.47,48.094-183.75,48.156   z"/><path display="inline" d="M-181.219,53.531c-0.156,0.234-2.5-2.416-2.609-2.734c0.219-0.281,0.281-1,0.281-1   s0.469,0.266,0.719,0.203S-181.062,53.297-181.219,53.531z"/><path display="inline" d="M-182.404,49.797c0,0,0.263-0.141,0.248-0.375s-0.361-0.703-0.361-0.703s3.439,1.266,3.455,1.906   C-179.484,51.031-182.404,49.797-182.404,49.797z"/><path display="inline" d="M-181.208,52.578l-1.31-2.578l0.114-0.078c0,0,1.404,1.734,1.466,2.531S-181.208,52.578-181.208,52.578z"/><path display="inline" d="M-179.344,52.312c-0.344-0.672-2-1.922-2-1.922l-0.703-0.281l0.719,1.102   C-181.328,51.211-179,52.984-179.344,52.312z"/><path display="inline" d="M-182.75,48.578c-0.213-0.166-0.547-0.424-0.547-0.424S-180.031,45-180.406,46   S-182.537,48.744-182.75,48.578z"/><path display="inline" d="M-182.404,48.589c0,0,0.372-0.266,0.567-0.435s1.04-0.341,1.258-0.216s-1.014,0.966-1.146,0.915   S-182.404,48.589-182.404,48.589z"/><path display="inline" d="M-181.562,47.895c0,0,1.077-1.051,1.186-1.426s1.376-0.078,1.314,0.156s-1.209,1.234-1.495,1.156   S-181.562,47.895-181.562,47.895z"/><path display="inline" d="M-183.484,48.078c-0.219-0.141-0.514,0.076-0.514,0.076s0.031-2.748,0.257-2.857   S-183.266,48.219-183.484,48.078z"/><path display="inline" d="M-183.201,47.812c0,0,0.002-0.95,0-1.522s0.857-0.962,1.154-0.884S-183.201,47.812-183.201,47.812z"/><path display="inline" d="M-184.109,49.031c-0.203-0.469,0-0.75,0-0.75s-1-0.688-1.531-0.672s-1.078,0.734-0.938,1.109   s1.153,0.729,1.361,0.406S-184.882,48.164-184.109,49.031z"/><path display="inline" d="M-184.109,48.078c0,0-0.688-2.72-1-2.274s-0.339,1.5-0.107,1.633S-184.109,48.078-184.109,48.078z"/><path display="inline" d="M-185.562,47.422c-0.484-0.016-1.038,0.531-1.038,0.531s-1.899-0.406-1.915-0.672   s0.641-0.276,1.156-0.365S-186.172,47.047-185.562,47.422z"/><path display="inline" d="M-185.469,47.312c-0.844-0.516-1.422-0.588-1.422-0.588s-1.125-1.583-0.859-1.927   s2.203,0.844,2.281,1.359C-185.609,46.453-185.641,47.078-185.469,47.312z"/><path display="inline" d="M-187.125,46.724l-0.516-0.802c0,0-2.516-0.312-2.547,0.102s1.254,0.965,1.75,0.893   S-187.125,46.724-187.125,46.724z"/><path display="inline" d="M-185.217,49.359c-0.252,0.125-0.986-0.108-0.986-0.108s-1.188,1.515-1.188,1.827   s2.021-0.594,2.021-0.594S-185.359,49.734-185.217,49.359z"/><path display="inline" d="M-186.422,49.172c-0.625-0.375-0.208-1.018-0.208-1.018s-1.965-0.325-1.886,0.276   S-185.953,49.547-186.422,49.172z"/><path display="inline" d="M-186.601,49.438c-0.165,0.01-3.29,0.172-3.274,0.562s2.625,0.375,2.625,0.375   S-186.436,49.428-186.601,49.438z"/><path display="inline" d="M-187.25,49.299c-0.578-0.081-1.269-0.581-1.269-0.581s-3.247-0.029-3.153,0.29s2,0.704,2,0.704   S-189.016,49.391-187.25,49.299z"/><path display="inline" d="M-188.657,48.589c-0.953,0.021-2.921-0.308-2.906-0.636s3.78-0.164,3.335-0.059   C-188.875,48-188.542,48.614-188.657,48.589z"/><path display="inline" d="M-188.047,47.672c-0.797-0.203-0.61-0.58-0.61-0.58s-3.375-0.543-3.312-0.169s0.953,0.686,0.953,0.686   S-189.312,47.531-188.047,47.672z"/><path display="inline" d="M-189.531,46.792c-0.469-0.12-0.797-0.588-0.797-0.588s-1.922-0.297-2,0s0.562,0.401,0.562,0.401   S-190.75,46.594-189.531,46.792z"/><path display="inline" d="M-187.391,50.516c0,0-1.048,0.062-1.266,0s-2.734,2.125-2.906,2.438s-0.016,0.75,0.766,0.328   S-187.391,50.516-187.391,50.516z"/><path display="inline" d="M-189.146,50.514c-0.248-0.083-0.731-0.243-0.731-0.243s-2.043,1.136-2.458,1.714s0.25,0.412,0.709,0.37   S-189.212,50.676-189.146,50.514z"/><path display="inline" d="M-190.008,50.109c0,0-0.129-0.208,0.055-0.312s-3.297-0.359-3.625-0.172s0,0.591,0.578,0.889   s1.625,0.408,1.625,0.408L-190.008,50.109z"/><path display="inline" d="M-191.234,49.438c0,0-2.016-0.838-2.234-0.583s0.5,0.583,0.5,0.583H-191.234z"/><path display="inline" d="M-190.344,48.589c-0.656-0.136-1.33-0.511-1.33-0.511s-1.951-0.312-1.951,0s1.798,0.865,1.798,0.865   S-191.75,48.578-190.344,48.589z"/><path display="inline" d="M-187.791,45.703c-0.053-0.141-0.428-0.764-0.163-0.968s-2.656-1.392-2.734-1.032s0.938,2,0.938,2   S-188.269,45.609-187.791,45.703z"/><path display="inline" d="M-185.37,45.81c-0.308-0.216-1.333-0.935-1.333-0.935s-0.516-1.906-0.172-2.125S-185,45.578-185,45.578   S-185.203,45.672-185.37,45.81z"/><path display="inline" d="M-186.922,44.735c-0.344-0.235-0.869-0.142-0.869-0.142l-0.475-0.32c0,0-1.139-2.633-0.976-2.93   s2.116,2.438,2.116,2.438S-187.031,44.5-186.922,44.735z"/><path display="inline" d="M-187.125,43.469c0,0-1.391-2.188-1.281-2.469s2.256,1.656,1.776,1.562   C-187.266,42.469-187.125,43.469-187.125,43.469z"/><path display="inline" d="M-187.604,50.922c0,0,0.128,0.703,0.974,0.222c-0.411,0.92-2.12,2.413-2.516,2.312   S-187.604,50.922-187.604,50.922z"/><path display="inline" d="M-185.37,50.707c0.089-0.16-1.067,0.437-1.067,0.437s-1.375,1.919-1.125,2.231s2.438-1.877,2.438-1.877   S-185.53,50.79-185.37,50.707z"/><path display="inline" d="M-184.938,51.671c-0.109-0.078-0.188,2.579-0.188,2.579s0.031,0.266,0.188,0.391s0.594-0.172,0.828-0.375   s-0.234-2.768-0.234-2.768S-184.828,51.749-184.938,51.671z"/><path display="inline" d="M-184.219,51.34l0.297-0.418l0.328,0.46c0,0,0.341,2.055,0.194,2.305s-0.428,0.062-0.428,0.062   L-184.219,51.34z"/><path display="inline" d="M-187.188,54.67c-0.266-0.014,0.587-1.586,0.587-1.586l1.384-1.209c0,0-0.282,1.36-0.596,1.671   S-186.922,54.685-187.188,54.67z"/><path display="inline" d="M-185.217,52.464c0,0-0.272,1.019-0.439,1.176s-0.647,0.609-0.647,0.609s-0.116,1.172,0,1.531   s0.859-1.188,0.949-1.469S-185.217,52.464-185.217,52.464z"/><path display="inline" d="M-189.875,53.546"/><path display="inline" d="M-189.462,53.328c0,0-1.397,1.019-1.694,0.822s0.469-0.744,0.469-0.744l2.052-1.531L-189.462,53.328z"/><path display="inline" d="M-189.391,53.46c0.031,0.18,0.391,0.085,0.391,0.085s-0.797,1.095-1,1.235s-0.703,0.062-0.688-0.203   S-189.422,53.28-189.391,53.46z"/><path display="inline" d="M-189.734,55.203c-0.141-0.156,0.938-1.657,0.938-1.657s1.049-0.655,1.204-0.858   c-0.157,0.344-0.142,0.858-0.142,0.858S-189.594,55.359-189.734,55.203z"/><path display="inline" d="M-186.859,53.273c-0.109,0.225-0.733,0.273-0.733,0.273s-1.069,1.532-1.043,1.751s0.261,0.203,0.589,0   s0.606-0.828,0.606-0.828S-187.188,53.719-186.859,53.273z"/><path display="inline" d="M-186.5,54.438l-0.539,0.328c0,0-0.273,1-0.086,1.234s0.625-0.391,0.625-0.391V54.438z"/><path display="inline" d="M-185.217,54.562l-0.658,1.156c0,0-0.297,1.406,0.156,1.562s0.502-1.734,0.502-1.734V54.562z"/><path display="inline" d="M-185.031,54.766c0,0-0.141,2.094,0.156,2.203s0.797-2.328,0.5-2.203S-185.031,54.766-185.031,54.766z"/><path display="inline" d="M-183.363,51.734l0.162,1.35c0,0,1.354,1.807,1.723,1.838s0.072-1.299-0.131-1.376   S-183.363,51.734-183.363,51.734z"/><path display="inline" d="M-183.201,53.329c0,0-0.096,0.634-0.237,0.622s0.496,1.253,0.92,1.394s-0.076-1.199-0.076-1.199   L-183.201,53.329z"/><path display="inline" d="M-183.641,54.016c0,0-0.297-0.271-0.25-0.065s-0.219,0.612-0.219,0.612s0.29,1.543,0.747,1.49   S-183.641,54.016-183.641,54.016z"/><path display="inline" d="M-181.478,48.943l1.102-0.769c0,0,0.899-0.357,1.067,0s-1.243,1.125-1.243,1.125L-181.478,48.943z"/><path display="inline" d="M-180.376,49.438l0.897-0.583c0,0,3.146,0.408,3.229,0.704s-2.896,0.551-2.896,0.551L-180.376,49.438z"/><path display="inline" d="M-180.79,50.68l1.124,0.818c0,0,2.062,0.847,2.125,0.487s-1.625-1.063-1.625-1.063L-180.79,50.68z"/><path display="inline" d="M-184.219,47.197l-0.521-1.494c0,0-0.04-1.364,0.256-1.429s0.485,1.02,0.485,1.02L-184.219,47.197z"/><path display="inline" d="M-183.363,45.917c0,0-0.105-0.729-0.298-0.75s1.12-2.854,1.328-2.854s0.001,3.004-0.271,2.981   S-183.363,45.917-183.363,45.917z"/><path display="inline" d="M-182.604,47.197l0.767-1.593c0,0,0.918-0.667,1.159-0.562s-0.112,0.713-0.112,0.713L-182.604,47.197z"/><path display="inline" d="M-183.828,45.03l-0.391-0.916c0,0-0.021-2.156,0.391-2.198s0.745,1.271,0.745,1.271L-183.828,45.03z"/><path display="inline" d="M-185,45.167l-0.562-1.052c0,0-0.178-1.427,0.192-1.802s1.026,1.078,1,1.688   C-184.896,44.083-185,45.167-185,45.167z"/><path display="inline" d="M-185.734,43.938l-0.703-1.199c0,0,0.055-0.129,0.074-0.301s-0.48-0.522-0.48-0.522   s0.203-0.971,0.641-0.943s0.884,1.231,0.598,1.34S-185.734,43.938-185.734,43.938z"/><path display="inline" d="M-184.369,43.25c0,0-0.428-1.044-0.521-1.03s-0.141-1.455,0-1.736s0.938,1.378,0.781,1.431   S-184.369,43.25-184.369,43.25z"/><path display="inline" d="M-185.355,42.141h0.261c0,0-0.203-1.312,0-1.484s-0.397-0.328-0.511-0.359s-0.536,0.646-0.27,0.675   S-185.355,42.141-185.355,42.141z"/><path display="inline" d="M-182.344,45.294c0,0,0.266-1.122,0.234-1.356s0.797-0.859,1.031-0.688s-0.4,1.917-0.4,1.917   s-0.234,0.351-0.358,0.23C-181.922,45.203-182.344,45.294-182.344,45.294z"/><path display="inline" d="M-180.312,46.114c0,0,0.202-0.333,0.108-0.411s2.031-0.714,2.219-0.537s-0.905,1.258-1.164,1.124   S-180.312,46.114-180.312,46.114z"/><path display="inline" d="M-179.06,46.897c0.06,0.212-1.251,0.998-1.251,0.998s0.847-0.141,1.017,0.045s1.357,0.271,1.42-0.045   S-179.12,46.685-179.06,46.897z"/><path display="inline" d="M-179.309,48.683c0,0,0.33-0.273,0.172-0.508c0.184,0.076,1.11,0.083,1.264-0.069   c0.498-0.152,2.123-0.176,2.295-0.039s-1.197,1.036-1.438,0.996S-179.309,48.683-179.309,48.683z"/><path display="inline" d="M-177.703,47.812c-0.125-0.328-0.609-0.72-0.609-0.72s1.801-0.711,2.064-0.488   S-177.578,48.141-177.703,47.812z"/><path display="inline" d="M-178.469,46.923c-0.141-0.188-0.391-0.131-0.391-0.131l-0.078-0.36c0,0,1.922-1.322,2.203-1.009   S-178.328,47.111-178.469,46.923z"/><path display="inline" d="M-180.453,45.516c0,0-0.062-0.562-0.141-0.641s-0.344,0-0.344,0s1.391-1.632,1.734-1.402   S-180.453,45.516-180.453,45.516z"/><path display="inline" d="M-181.266,45.03c0,0,0.312-0.925,0.328-1.321s0.781-0.699,1.062-0.681s-0.359,0.909-0.359,0.909   L-181.266,45.03z"/><path display="inline" d="M-182.109,43.547c0,0,0.047-0.516,0-0.938s1.141-1.501,1.453-1.391s-0.156,1.87-0.547,1.81   S-182.109,43.547-182.109,43.547z"/><path display="inline" d="M-182.964,42.922l-0.333-0.702c0,0,0.219-0.971,0.484-1.002s0.328,0.922,0.328,0.922L-182.964,42.922z"/><path display="inline" d="M-182.344,42.07c0,0-0.065-1.085,0.233-1.429s0.955,0.75,0.626,0.797   c-0.269,0.177-0.626,0.783-0.626,0.783L-182.344,42.07z"/><path display="inline" d="M-183.906,41.781c-0.203,0.134-0.203-1.469,0.078-1.641s0.745,1.078,0.745,1.078L-183.4,42   C-183.4,42-183.703,41.647-183.906,41.781z"/><path display="inline" d="M-180.219,45.516c0,0,1.13-1.114,1.159-1.487s1.701-0.507,1.873-0.393s-0.531,1.519-1.016,1.395   S-180.219,45.516-180.219,45.516z"/><path display="inline" d="M-180.938,43.028v0.222c0,0,0.752-0.516,1.134-0.422s0.778-0.633,0.741-1.047   C-179.391,41.516-180.938,43.028-180.938,43.028z"/><path display="inline" d="M-179.734,43.473l0.109-0.446c0,0,0.641-0.302,0.688-0.649s0.453-0.032,0.625,0.076   s-0.125,1.061-0.625,1.181C-179.094,43.047-179.734,43.473-179.734,43.473z"/><path display="inline" d="M-180.93,51.734l0.14,0.953c0,0,1.38,0.962,1.481,0.773s-0.81-1.091-0.81-1.091L-180.93,51.734z"/><path display="inline" d="M-179.521,51.734l0.356,0.635c0,0,0.707,0.422,1.019,0.318s0-0.477,0-0.477L-179.521,51.734z"/><path display="inline" d="M-181.125,53.084l0.104,0.462c0,0,0.438,0.803,1,0.795s0-0.936,0-0.936s-0.768-0.564-0.769-0.381   S-181.125,53.084-181.125,53.084z"/><path display="inline" d="M-181.303,53.817c0,0,0.138,0.067,0.276,0s0.141,0.515,0,0.547S-181.303,53.817-181.303,53.817z"/><path display="inline" d="M-178.938,50.792c0,0,0.208-0.359,0-0.521s1.399-0.105,1.501,0.104S-178.938,50.792-178.938,50.792z"/><path display="inline" d="M-189.396,41.916c0,0-0.317-0.76,0-0.854s0.983,0.688,0.983,0.688s-0.573-1.024-0.244-1.176   s1.664,1.072,1.664,1.072s0.464-0.896,0.639-0.896s0.175,0,0.175,0s0.282-0.588,0.574-0.708S-185,40.296-185,40.296   s0.095-0.182,0.259,0s0.522,0.579,0.522,0.579s-0.041-0.822,0.323-1.083s1.131,0.916,1.005,1.27   c0.188-0.093,0.406,0.259,0.406,0.259s-0.05-0.808,0.374-1.025s0.944,0.915,0.944,0.915s0.425-0.313,0.632-0.238   s0.158,1.168,0.158,1.168s2.555-4.484,2.555-6.016s0-5.812,0-5.812s0.009-1.469-1.333-1.969   c-6.751-0.062-15.126,6.281-15.126,6.281s0.719,0.312,1.594,1.25S-189.396,41.916-189.396,41.916z"/><path display="inline" d="M-178.264,28.343c0,0-0.327-0.125-0.891-0.343s-2.423,0.124-3.093,0.343s-4.346,1.438-5.064,1.657   s-7.375,3.812-7.5,4.562s-3.344,4.188-4.438,4.344s-2.281,0.281-2.25-0.344s7.038-6.851,8.333-7.656   c2.167-2.25,9.476-6.938,11.056-6.875s3.49,1.281,3.847,1.906S-178.264,28.343-178.264,28.343z"/><path display="inline" d="M-183.083,23.844c0,0-9.242,0.733-10.292,1.438s-2.469,1.656-2.469,1.656s-6.531-3.875-8.844-1.219   s2,10.156,1.969,11.094s0.344,2.625,0.594,1.719s7.938-7.845,8.656-7.938C-191.75,27.969-183.083,23.844-183.083,23.844z"/><path display="inline" d="M-196.094,26.375c0,0-4.844-3.125-8.594-1.344s1.469,11.625,1.469,11.625s0.094,2.188,0.656,2.625   s0.719-0.248,0.719-0.248s0.969,0.717,2.75,0.248s4.625-4.039,4.625-4.039s1.781,0.102,5.228,8.227   c-1.134-0.438-1.634-0.562-1.978-0.219s0.719,2.453,0.719,2.453s-7.844-2.601-9.875-2.964s-14.031-0.426-14.031-0.426   s-14.698-8.917-14.5-15.469c-0.219-0.844-1.885-0.302-1.844-0.906s3.688-1.771,4.219-3.562s1.531-4.042,2.781-4.812   s13.219-0.188,17.969,0.188S-196.094,26.375-196.094,26.375z"/><path display="inline" d="M-182.484,23.583c0,0,2.187-0.854,3.794,0.261s16.399,16.198,17.399,18.656s1.375,4.088,3.292,4.731   s2.166-2.04,2.083-4.011s-2.541-8.805-3.958-10.721s-13.042-11.667-15.083-12.083s-5.883-0.083-6.879,0.75   S-182.484,23.583-182.484,23.583z"/><path display="inline" d="M-158.792,47.329c0,0-2.917-1.393-3.042-4.59c-3.649-5.242-16.625-18.51-17.688-18.895s-1.812,0-1.812,0   s3.064,0.24,3.511,2.49s0,2.583,0,2.583s1.374,5.208,0.556,7.708s-2.043,4.772-2.043,4.772s1.165,0.176,1.487,0.744   s0,0.787,0,0.787s1.284-0.386,1.574,0.322s-0.626,1.306-0.626,1.306s0.437-0.038,0.656,0.474s-0.487,1.041-0.487,1.041   s1.037-0.176,1.142,0.23s-0.478,1.027-0.478,1.027s1.042-0.006,1.208,0.625s-0.958,1.169-0.958,1.169s-0.125,0.263-0.25,0.987   s1.417,1.273,1.417,1.273s1.579-1.175,2.917-1.273s3.125-0.267,5.417-0.396S-158.792,47.329-158.792,47.329z"/><path display="inline" d="M-186.56,5.562c-1.253,1.519-3.252,2.062-5.002,6.062s-0.25,12.406-0.25,12.406l8.729-0.843   c0,0-0.729-3,4.521-3.562c-0.438-3.438-3.887-7.25-3.787-8.375S-185.307,4.044-186.56,5.562z"/><path display="inline" d="M-185.605,74.75c-2.27-0.688-3.115-2.375-5.083-2.625s-10.189,0.763-9.562-1s0.25-4,5.969-4.688   c0.719-2.969,1.152-3.719,2.607-4.25s2.036,0.25,3.261,0s3.288-5.031,3.288-5.031s-0.099,0.644,0.451,0.134s0.63-1.236,0.63-1.236   s0.7,0.477,1.013,0.196s0.129-0.415,0.129-0.415s0.684,0.009,1.027-0.481c0.5,0.271,1.197-0.684,1.197-0.684   s0.948-0.082,1.157-0.329s0-0.524,0-0.524s0.052,0.338,0.458-0.005s0-0.824,0-0.824s1.139,0.104,1.522-0.146   s-0.179-0.378-0.179-0.378s0.781-0.152,0.781-0.589s-1.069-0.953-1.069-0.953s0.882,0,1.069-0.242s0-0.482,0-0.482l0.406-0.022   c0,0,3.344,4.106,6.469,4.585c-0.938,0.239-2.25,1.16-2.25,1.293c-0.281,4.415-6.312,7.696-6.75,10.008   S-183.335,75.438-185.605,74.75z"/><path display="inline" d="M-175.656,62.312c0,0-2.438,2.375-2.875,3.469s-1.781,7-6.642,9.5c-1.766-0.48-5.077-2.781-5.077-2.781   s1.87,2.875,5.576,3.875s8.112-7.594,8.456-9S-175.656,62.312-175.656,62.312z"/><path display="inline" d="M-174.333,51.734c0.239,0.877,5.095,2.62,5.11,3.026s-0.943,1.031-2.555,1.49   c-0.013,1.583-3.43,6.062-3.43,6.062s4.5-0.229,5.146,1.688s5.896,7.375,10.104,7.5s6.75-3.667,7.417-3.208s1.917,0.527,1.792,0   s-0.875-3.417-0.375-4.125s0.625-2.292,0.375-3.292s-8.639-8.355-10.042-8.891s-4.917-1.875-4.917-1.875s-5.083,0.375-6.292,0.57   S-173.372,50.631-174.333,51.734z"/><path display="inline" d="M-190.806,55.213c-0.632-0.182-0.288-0.65-0.288-0.65s-0.656-0.344-0.469-0.75   c-0.781-0.125-0.265-0.969-0.265-0.969s-0.892,0.461-1.017-0.378s0.719-1.177,0.719-1.177s-2.281-1.077-2.062-1.729   c-0.094-0.652,0.312-0.259,0.312-0.259s-0.294-0.736,0.25-0.779c-0.119-0.294-0.719-0.44-0.25-0.761s1.905,0,1.905,0l0.143-0.15   c0,0-0.875-0.715-0.508-0.885c-0.509-0.224-0.478-0.394-0.478-0.653s1.578-0.353,1.578-0.353s-5.675-1.765-9.359-2.498   s-6.594-0.431-14.375-0.482s-10.875,13.917-11.594,15.011s0.125,5.531,0,6.562s-1.688,2.906-1.312,3.688s1,0.094,1.312,0.75   s5.125,4.094,5.875,5.312s7.688,1.156,9.375,0.734s8.469-4.703,9.312-8.297s3.312-8.388,4.438-9.209   S-190.174,55.395-190.806,55.213z"/><path display="inline" d="M-185.594,57.594c-0.865-0.094-0.634-1.54-0.634-1.54h-0.272c0,0-0.048,0.321-0.691,0.29   s-0.2-1.38-0.2-1.38s-0.699,0.912-1.279,0.755s0-0.869,0-0.869s-1.08,0.847-1.205,0.605S-190,55.213-190,55.213   s-0.25,0.193-0.375,0c-0.188,1.256-5.062,0.943-6.938,2.225s-4.531,9.75-4.531,9.75s-0.312,4.094-9.312,7.884   c-1.088,0.152-1.719,0.241-1.719,0.241s0.781,5.25,1.438,9.406s6.031,9.781,8.688,9.562s9-4.25,8.344-9.062   s-1.875-7.125-1.406-8.375s0.562-4.25,0.562-4.25s-5.406,0.382-5.375-1.09s0.438-2.566,1.531-3.722s4.5-1.75,4.5-1.75   s0.846-4.363,3.125-4.312s1.531-0.062,2.656,0.094S-186.214,58.426-185.594,57.594z"/></g><g display="none"><path display="inline" d="M-72.167,44.375c-0.396-0.468-1.583-0.104-1.708,0.417s0.303,1.27,1.042,0.958   S-71.771,44.843-72.167,44.375z"/><path display="inline" d="M-70.078,42.953c0,0-1.922-0.172-2.703,0.984c2.344,0.625,0.094,1.969,0.094,1.969   s1.656-0.312,2.688-0.234S-70.078,42.953-70.078,42.953z"/><path display="inline" d="M-70.906,42.719c-0.667-0.042-1.073,0.385-1.323,0.406s0.042-0.729-0.125-1.625s-4.458-7.594-4.458-7.844   s0.742-0.608,0.875-0.375S-71.281,40.885-70.906,42.719z"/><path display="inline" d="M-84.478,21.979c0,0-0.802-0.292-0.646,0.458s8.03,10.844,8.03,10.844s0-0.344,0.906-0.375   C-77.781,31.031-84.478,21.979-84.478,21.979z"/><path display="inline" d="M-84.79,21.625c-0.531,0-0.427,0.252-0.646,0.417s-9.437-10.771-9.5-11.208s0.108-0.767,0.375-0.479   S-84.259,21.625-84.79,21.625z"/><path display="inline" d="M-94.748,10c-0.375-0.062-0.188,0.253-0.417,0.378s-3.104-3.774-3-4.232S-94.373,10.062-94.748,10z"/><path display="inline" d="M-70,45.906c0,0-2.771,0.135-3.292,0.24s-3.458,2.584-3.688,2.917s-1.979,0.708-1.979,0.708   s7.771,1.375,8.958,1.125S-70,45.906-70,45.906z"/><path display="inline" d="M-70,51.167c-5.771-0.312-9.042-1.25-9.25-1.333s-1.75,0.688-1.896,0.875s4.333,3.167,10.979,2.896   S-69.271,51.833-70,51.167z"/><path display="inline" d="M-80.27,51.605c0,0,1.771,0.979,3.667,1.479c3,0.938,6.771,0.729,6.771,0.729v0.812   c0,0-3.063,0.167-4.708-0.125s-4.604-1.625-5.083-2S-80.27,51.605-80.27,51.605z"/><path display="inline" d="M-75.75,47.604c0,0,0.667-0.792,1.104-0.938c-1.167-2.417-4.979-4.563-5.292-4.542   s-0.521,1.023-0.771,1.001C-80.771,43.624-75.75,47.604-75.75,47.604z"/><path display="inline" d="M-80.875,42.944c0.149-0.198,0.375-1.049,0.792-1.049c-0.667-0.167-1.583,0.229-1.583,0.229   s-0.259,0.76,0,0.82S-81.024,43.142-80.875,42.944z"/><path display="inline" d="M-87.396,46.416c-0.083,0.188,0.396,0.917,0.792,0.917s4.979-4.207,4.979-4.207s-0.188-0.028-0.312-0.181   s0.104-0.545,0-0.695C-82.229,42.145-87.313,46.229-87.396,46.416z"/><path display="inline" d="M-87.688,46.395c-0.167,0.354,0.619,0.689,0.562,0.938c-0.562,0.167-6.708-2.25-7.021-2.25   s-0.792,0.604-0.917,0.438s0.333-0.854,0.333-0.854s-0.271-0.583-0.083-0.688s0.583,0.292,0.875,0.583   S-87.521,46.041-87.688,46.395z"/><path display="inline" d="M-69.833,55l-4.24-0.001c0,0,3.064,4.45,3.596,4.544s0.644,0.113,0.644,0.113V55z"/><path display="inline" d="M-74.75,54.812c-0.278-0.089-1.531-0.562-1.812-0.578c-0.125,0.5,5.812,9.797,5.812,9.797   s0.359,0.078,0.516-0.125s0-2.297,0-2.297s-1.016-1.109-1.016-1.5s0.078-0.297,0.234-0.453   C-71.344,59.375-74.5,55.062-74.75,54.812z"/><path display="inline" d="M-70.521,66.979c-0.542-0.604-1.833-0.062-2.208,0.312s0.938,1.667,1.417,1.625   S-69.979,67.583-70.521,66.979z"/><path display="inline" d="M-78.781,75.344l0.438-9.031c0,0-0.014-2.688-0.75-8.469C-79.906,60-78.781,75.344-78.781,75.344z"/><path display="inline" d="M-79.562,54.234c-0.25-0.516-0.188-1.266-0.188-1.266s-7.406-3.25-8.719-3.142   c-0.25,0.017-0.25,1.017,0.188,0.954S-79.312,54.75-79.562,54.234z"/><path display="inline" d="M-88.375,51.062c0,0-0.406-0.156-0.531-0.75c-0.719,0.781,2.594,10.906,3.062,11.344   s1.648,0.156,1.746-0.188S-88.375,51.062-88.375,51.062z"/><path display="inline" d="M-90.156,65.312c-0.08,0.347-0.125,0.5-0.188,0.812S-90.75,65.5-90.75,65.5s-1.344,0.219-1.344,0   s5.75-2.896,6.188-3.62c0.344,0.308,1.094,0.339,1.094,0.339S-90.076,64.966-90.156,65.312z"/><path display="inline" d="M-79.557,63.5v1.417c0,0-10.358,7.667-11.192,7.875s-1.314-0.125-1.345-0.708S-79.557,63.5-79.557,63.5z"/><path display="inline" d="M-79.833,88.5c0.042,0.542-1.11,0.458-1.458,0s-11.356-14.919-10.803-15.647   c0.553,0.522,1.303,0.313,1.303,0.313S-79.875,87.959-79.833,88.5z"/><path display="inline" d="M-85.973,94.5c0.307-0.625,0.557-0.333,0.557-0.333s1,1.417,1.125,0.958s-0.974-0.792-0.841-1.375   s4.841-3.875,4.799-4.542c-0.5,0.208-1-0.333-1-0.333S-86.613,92.959-85.973,94.5z"/><path display="inline" d="M-76.564,78.438c0,0,0.502-2.406,1.986-3.75c0.446-0.373,0.474,0.188,1.213-0.281   s2.552-5.375,3.365-5.312s1.072,2,0,2.531s-1.781,0.738-1.812,1.229s2.062,0.49,2.062,0.49s0.188,0.323,0,1.344   C-74.688,75.083-76.564,78.438-76.564,78.438z"/><path display="inline" d="M-70,67.375c-0.125,0.625-1.062,1.812-1.062,1.812s-1.062,1.779-1.417,2.25s-2.407,2.833-2.099,2.792   s0.37,0.312,0.828,0.083s2.021-3.271,2.375-3.896s0.953-1.604,1.383-1.604S-69.875,66.75-70,67.375z"/><path display="inline" d="M-67.61,44.387c0.396-0.468,1.583-0.104,1.708,0.417s-0.303,1.27-1.042,0.958   S-68.006,44.855-67.61,44.387z"/><path display="inline" d="M-70.078,42.953c0,0,2.301-0.16,3.083,0.997c-2.344,0.625-0.094,1.969-0.094,1.969   s-1.656-0.312-2.688-0.234S-70.078,42.953-70.078,42.953z"/><path display="inline" d="M-68.871,42.731c0.667-0.042,1.073,0.385,1.323,0.406s-0.042-0.729,0.125-1.625s4.458-7.594,4.458-7.844   s-0.742-0.608-0.875-0.375S-68.496,40.897-68.871,42.731z"/><path display="inline" d="M-55.299,21.992c0,0,0.802-0.292,0.646,0.458s-8.03,10.844-8.03,10.844s0-0.344-0.906-0.375   C-61.996,31.043-55.299,21.992-55.299,21.992z"/><path display="inline" d="M-54.987,21.637c0.531,0,0.427,0.252,0.646,0.417s9.437-10.771,9.5-11.208s-0.108-0.767-0.375-0.479   S-55.518,21.637-54.987,21.637z"/><path display="inline" d="M-45.029,10.012c0.375-0.062,0.188,0.253,0.417,0.378s3.104-3.774,3-4.232S-45.404,10.074-45.029,10.012z   "/><path display="inline" d="M-70,45.906c0,0,2.994,0.147,3.515,0.252s3.458,2.584,3.688,2.917s1.979,0.708,1.979,0.708   s-8.159,1.385-9.346,1.135S-70,45.906-70,45.906z"/><path display="inline" d="M-70.165,51.158c5.771-0.312,9.43-1.229,9.638-1.312s1.75,0.688,1.896,0.875s-4.333,3.167-10.979,2.896   S-70.895,51.824-70.165,51.158z"/><path display="inline" d="M-59.507,51.618c0,0-1.771,0.979-3.667,1.479c-3,0.938-6.771,0.729-6.771,0.729v0.812   c0,0,3.063,0.167,4.708-0.125s4.604-1.625,5.083-2S-59.507,51.618-59.507,51.618z"/><path display="inline" d="M-64.027,47.616c0,0-0.667-0.792-1.104-0.938c1.167-2.417,4.979-4.563,5.292-4.542   s0.521,1.023,0.771,1.001C-59.006,43.636-64.027,47.616-64.027,47.616z"/><path display="inline" d="M-58.902,42.957c-0.149-0.198-0.375-1.049-0.792-1.049c0.667-0.167,1.583,0.229,1.583,0.229   s0.259,0.76,0,0.82S-58.752,43.154-58.902,42.957z"/><path display="inline" d="M-52.381,46.428c0.083,0.188-0.396,0.917-0.792,0.917s-4.979-4.207-4.979-4.207s0.188-0.028,0.312-0.181   s-0.104-0.545,0-0.695C-57.548,42.157-52.464,46.241-52.381,46.428z"/><path display="inline" d="M-52.089,46.407c0.167,0.354-0.619,0.689-0.562,0.938c0.562,0.167,6.708-2.25,7.021-2.25   s0.792,0.604,0.917,0.438s-0.333-0.854-0.333-0.854s0.271-0.583,0.083-0.688s-0.583,0.292-0.875,0.583   S-52.256,46.053-52.089,46.407z"/><path display="inline" d="M-69.944,55.012l4.24-0.001c0,0-3.064,4.45-3.596,4.544s-0.644,0.113-0.644,0.113V55.012z"/><path display="inline" d="M-65.027,54.825c0.278-0.089,1.531-0.562,1.812-0.578c0.125,0.5-5.812,9.797-5.812,9.797   s-0.359,0.078-0.516-0.125s0-2.297,0-2.297s1.016-1.109,1.016-1.5s-0.078-0.297-0.234-0.453   C-68.433,59.387-65.277,55.075-65.027,54.825z"/><path display="inline" d="M-69.256,66.991c0.542-0.604,1.833-0.062,2.208,0.312s-0.938,1.667-1.417,1.625   S-69.797,67.596-69.256,66.991z"/><path display="inline" d="M-65.964,64.45c0.312-1.25,4.75-11.062,4.75-11.062s-0.953,0.531-1.594,0.625   c0.094,0.375-5.625,10.219-6.157,10.292s-0.868-0.246-0.868-0.246s-0.4,0.239-0.932,0.166s-6.25-9.917-6.157-10.292   c-0.641-0.094-1.594-0.625-1.594-0.625s4.438,9.812,4.75,11.062s-0.398,2.219-0.402,2.969s1.262,3.656,1.621,3.656   s1.25-1.859,1.25-1.859s-2.156-1.047-1.766-1.938s1.625-0.969,2.125-0.859s0.709,0.646,0.937,1.036   c0.036,0.062,0.064,0.012,0.088-0.103c0.016,0.1,0.039,0.143,0.073,0.083c0.228-0.391,0.547-0.828,1.047-0.938   s1.734-0.031,2.125,0.859s-1.766,1.938-1.766,1.938s0.891,1.859,1.25,1.859s1.625-2.906,1.621-3.656S-66.277,65.7-65.964,64.45z"/><path display="inline" d="M-70,89.594c0,0-2.25-0.594-3.594-2.062s-3.176-5.375-3.25-6.688s-0.312-2.406,0.344-4.031   s3.705-5.375,3.705-5.375s-2.017-3.213-1.783-4.125s0.422-1.531,0.484-2.188s-4.812-11.75-4.812-11.75l-0.5-0.406   c0,0,1.344,10.188,1.469,12.938S-78.562,76.125-78.562,77s0,3.125,0,4.031s1.531,5.625,3.812,8.156   c1.846,2.049,3.979,2.296,4.725,2.315l-0.001,0.009c0,0,2.719,0.219,5-2.312s3.812-7.25,3.812-8.156s0-3.156,0-4.031   s-0.75-8.344-0.625-11.094s1.469-12.938,1.469-12.938l-0.5,0.406c0,0-4.875,11.094-4.812,11.75s0.25,1.275,0.484,2.188   s-1.783,4.125-1.783,4.125s3.048,3.75,3.705,5.375s0.417,2.719,0.344,4.031s-1.906,5.219-3.25,6.688s-3.594,2.062-3.594,2.062"/><path display="inline" d="M-60.996,75.356l-0.438-9.031c0,0,0.014-2.688,0.75-8.469C-59.871,60.012-60.996,75.356-60.996,75.356z"/><path display="inline" d="M-60.214,54.247c0.25-0.516,0.188-1.266,0.188-1.266s7.406-3.25,8.719-3.142   c0.25,0.017,0.25,1.017-0.188,0.954S-60.464,54.762-60.214,54.247z"/><path display="inline" d="M-51.402,51.075c0,0,0.406-0.156,0.531-0.75c0.719,0.781-2.594,10.906-3.062,11.344   s-1.648,0.156-1.746-0.188S-51.402,51.075-51.402,51.075z"/><path display="inline" d="M-49.621,65.325c0.08,0.347,0.125,0.5,0.188,0.812s0.406-0.625,0.406-0.625s1.344,0.219,1.344,0   s-5.75-2.896-6.188-3.62c-0.344,0.308-1.094,0.339-1.094,0.339S-49.701,64.978-49.621,65.325z"/><path display="inline" d="M-60.22,63.512v1.417c0,0,10.358,7.667,11.192,7.875s1.314-0.125,1.345-0.708S-60.22,63.512-60.22,63.512   z"/><path display="inline" d="M-59.944,88.513c-0.042,0.542,1.11,0.458,1.458,0s11.356-14.919,10.803-15.647   c-0.553,0.522-1.303,0.313-1.303,0.313S-59.902,87.971-59.944,88.513z"/><path display="inline" d="M-53.804,94.513c-0.307-0.625-0.557-0.333-0.557-0.333s-1,1.417-1.125,0.958s0.974-0.792,0.841-1.375   s-4.841-3.875-4.799-4.542c0.5,0.208,1-0.333,1-0.333S-53.164,92.971-53.804,94.513z"/><path display="inline" d="M-63.212,78.45c0,0-0.502-2.406-1.986-3.75c-0.446-0.373-0.474,0.188-1.213-0.281   s-2.552-5.375-3.365-5.312s-1.072,2,0,2.531s1.781,0.738,1.812,1.229s-2.062,0.49-2.062,0.49s-0.188,0.323,0,1.344   C-65.089,75.096-63.212,78.45-63.212,78.45z"/><path display="inline" d="M-69.777,67.387c0.125,0.625,1.062,1.812,1.062,1.812s1.062,1.779,1.417,2.25s2.407,2.833,2.099,2.792   s-0.37,0.312-0.828,0.083s-2.021-3.271-2.375-3.896s-0.953-1.604-1.383-1.604S-69.902,66.762-69.777,67.387z"/><path display="inline" d="M-69.889,71.85L-70.311,72c-0.622,0.198-1.48,0.726-1.261,0.906c0.229,0.188,1.134,0.244,1.566,0.259   l0.001,0.019c0,0,1.495-0.016,1.798-0.266S-69.889,71.85-69.889,71.85z"/><path display="inline" d="M-69.777,82.262c0,0,1.719,0.312,2.191,0s2.122-2.031,2.747-1.969s1.281,0.031,1.627,0.583   c0.221-0.323,0-1.99,0-1.99s-2.992-3.606-6.55-3.854c-0.004-0.01-0.006-0.023-0.01-0.033c-0.062,0.001-0.124,0.012-0.186,0.016   c-0.015,0-0.03-0.003-0.045-0.004c-0.001,0.002-0.001,0.005-0.002,0.008c-3.562,0.243-6.558,3.854-6.558,3.854s-0.221,1.667,0,1.99   c0.346-0.552,1.002-0.521,1.627-0.583s2.274,1.656,2.747,1.969s2.191,0,2.191,0"/></g><g><path d="M60.438,29.75c-0.562-1.25-6.188-2-6.188-2s-1.625,3.25,1.812,5.562S61,31,60.438,29.75z"/><path d="M63.062,39.062c-2.75-1.625-1.312-8.312-0.875-8.625s8.188,5.625,7.5,7.25S65.812,40.688,63.062,39.062z"/><path d="M78.5,47.875c-6.188,2.812-13.75-7.688-12.924-7.438c2.174,0.375,4.736-2.312,4.736-2.312S79.062,39.438,78.5,47.875z"/><path d="M66.75,43.24c0,0,11,15.198,15.625,13.26c2.75-3.188,0.711-4.963,0.625-5.438s-0.221-1.148-4.062-2.708   C73.625,51.431,66.75,43.24,66.75,43.24z"/><path d="M64.812,40.188c0,0,0.875,1.667,1.438,3.052c12.125,17.385,16.188,14.198,16.188,14.198s1.625,10.5-5.375,9.625   S64.812,40.188,64.812,40.188z"/><path d="M64.312,40.188c-1.625,0.188-2.892-2.5-2.892-2.5S54.25,65.562,60,70.25c4.688,1.688,12.875,3.125,17.062-2.25   C68.125,66.438,64.75,42.5,64.312,40.188z"/><path d="M60.875,33.95c0,0-0.546,2.737,0,3.237C53.75,68.562,59,70.625,59,70.625s-7.25,0.125-9-1.688   c-1.188,0.312-2.5,0.25-3.812-0.25C47.574,65.407,60.875,33.95,60.875,33.95z"/><path d="M54.188,32.312c-1.875-1.75-0.321-5.562-0.321-5.562s-3.929-4.375-17.929-2.25C37.562,26.25,44.062,36.312,54.188,32.312z"/><path d="M34.938,24.5c1.312,2,3.438,4.081,3.438,4.081s-6.125,1.5-9.938-2.041C31.312,25.375,31.713,24.793,34.938,24.5z"/><path d="M46.875,33.625c0,0-5.125-1.75-8.062-4.729C33,31.125,27.625,27.062,27.625,27.062s-4.562,1-6.875,4.375   C23.812,40.438,46.875,33.625,46.875,33.625z"/><path d="M49.25,33.95c0,0-1.125,0.112-1.688-0.263c-25.312,8.562-27.625-2.108-27.625-2.108s-6,3.421-5.5,8.921   C31.438,46.188,49.25,33.95,49.25,33.95z"/><path d="M14.408,41.25c0,0,2.467,9.562,7.342,11.688c1.25,0,4,0,4,0s8.625-4.312,9.312-5.844c2.545-1.454,6.875-2.078,10-5.086   c4-0.695,9.438-6.82,11.5-7.695c-1,0.062-2.062-1.375-2.062-1.375s-2.312,0.938-4.5,1.013C27.562,48.375,14.408,41.25,14.408,41.25   z"/><path d="M22.688,55.188c-1,0.188-2.125-0.823-0.938-1.537c1.006-0.34,3.75-0.338,3.75-0.338S23.688,55,22.688,55.188z"/><path d="M22.938,55.938c0,0,3.266-1.844,3.438-2.625c3.312-0.562,9.11-5.875,9.11-5.875s4.452-0.875,8.39-3.5   c-1.938,8.625-13.312,17-15.062,17.375S22.938,55.938,22.938,55.938z"/><path d="M56.562,35.108c0,0-6.812,6.829-11,7.454c-0.812,0.25-1,0.938-1,0.938s-1.875,11.125-14.625,18.25   c4.688,2.812,7,4.125,9.875,4.375C48.125,61.75,56.562,35.108,56.562,35.108z"/><path d="M60.553,32.938C58.438,35.5,57.21,34.75,57.21,34.75s-1.895,7.479-4.272,11.688C50.5,53.375,43.875,65.75,43.875,65.75   S32.033,86.875,31.829,89.5s3.546,1.625,4.671,0s9.062-21.188,9.062-21.188l11-26.305C56.562,42.008,59.438,35.312,60.553,32.938z"/><path d="M41.125,66.125l3.062-2.75c0,0-0.812,2.5-1.531,3.438S41.125,66.125,41.125,66.125z"/><path d="M64.812,13.833c0,0,0.021,1,1.604,1.833s2.5-0.667,3.75,0s0.905,2.905,1.854,3.583s4.312,3.083,4.312,3.083   s-2.209-6.25-4.312-7.75S64.812,13.833,64.812,13.833z"/><path d="M23.37,27.75c0,0,2.487-1.664,4.129-1.583c1.72-0.483,4.188-2.347,7.417-2.667c1.916,0.25,7.376-0.827,9.582-0.583   s8.501,0.583,10.241,3.333c0.093,1.167,6.682,2.647,6.682,2.647s5.411,2.27,9.151,7.897c10.177,3.29,8.927,10.623,8.927,10.623   s3.75,1.833,4.583,3.2c1-6.534-1.999-16.416-2.916-19.767s-4.104-7.934-4.104-7.934s1.521,8.901,2.104,11.034   s-0.64,6.237-0.64,6.237s-0.047-5.447-0.444-6.943s-2.75-10.161-2.25-10.328s-4.083-2.25-4.583-3.333s1.501,3.87,1.25,5.583   s-0.833,5.684-0.833,5.684s0.151-5.431-0.334-7.351s-1.62-6.333-1.602-6.833s-3.314,1-3.314,0s-0.418,1.25-2.084,5.667   s1.182-6.417,1.182-6.417s-1.182-0.5-1.932-2.917c-0.75-1.25-4.398,0-4.398,0s-3.602,1.333-7.934,4.167   c3.332-3.5,6.517-4.833,6.517-4.833S51.726,10.26,50.393,11s-3.561,1.667-8.968,6.583c1.265-2.75,3.638-3.938,3.638-3.938   s-4.813,2.021-9.577,6.271C30.582,21.25,23.37,27.75,23.37,27.75z"/></g><text x="0" y="115" fill="#000000" font-size="5px" font-weight="bold" font-family="'Helvetica Neue', Helvetica, Arial-Unicode, Arial, Sans-serif">Created by Rachel Siao</text><text x="0" y="120" fill="#000000" font-size="5px" font-weight="bold" font-family="'Helvetica Neue', Helvetica, Arial-Unicode, Arial, Sans-serif">from the Noun Project</text></svg>