<?xml version="1.0" encoding="UTF-8"?>
<svg width="212px" height="189px" viewBox="0 0 212 189" version="1.1" xmlns="http://www.w3.org/2000/svg" xmlns:xlink="http://www.w3.org/1999/xlink">
    <!-- Generator: Sketch 59 (86127) - https://sketch.com -->
    <title>noun_Neuroimaging_2892445</title>
    <desc>Created with Sketch.</desc>
    <g id="Page-1" stroke="none" stroke-width="1" fill="none" fill-rule="evenodd">
        <g id="Desktop-HD" transform="translate(-614.000000, -2917.000000)" fill-rule="nonzero">
            <g id="Group-2" transform="translate(275.000000, 2905.000000)">
                <g id="noun_Neuroimaging_2892445" transform="translate(339.000000, 12.000000)">
                    <g id="Group">
                        <path d="M126.635806,66.582871 C124.656,64.866629 122.088065,64.0374677 119.397032,64.0191774 C113.820065,64.1533065 109.347548,68.3113065 109.419355,73.2862742 C109.463806,76.1913871 108.195226,79.0721129 106,81.4071774 C103.82529,79.0873548 102.580645,76.221871 102.580645,73.1612903 C102.580645,68.1192581 97.9781935,64.016129 92.3225806,64.016129 C86.6669677,64.016129 82.0645161,68.1223065 82.0645161,73.1643387 C82.0645161,81.1633065 85.4462581,88.680629 91.5566452,94.4847581 C85.4462581,100.148661 82.0645161,107.556242 82.0645161,115.433274 C82.0645161,118.04879 83.268129,120.594194 85.3641935,122.417129 C87.2790323,124.075452 89.7443871,124.983871 92.3328387,124.983871 C92.4217419,124.983871 92.5140645,124.980823 92.6029677,124.980823 C98.1799355,124.846694 102.652452,120.688694 102.580645,115.713726 C102.536194,112.808613 103.808194,109.927887 106,107.592823 C108.17471,109.912645 109.419355,112.778129 109.419355,115.83871 C109.419355,120.880742 114.021806,124.983871 119.677419,124.983871 C125.333032,124.983871 129.935484,120.877694 129.935484,115.835661 C129.935484,107.836694 126.553742,100.319371 120.443355,94.5152419 C126.553742,88.8513387 129.935484,81.4437581 129.935484,73.5667258 C129.935484,70.9481613 128.731871,68.4027581 126.635806,66.582871 Z M95.7419355,115.796032 C95.765871,117.454355 94.2750323,118.838323 92.4183226,118.884048 C91.3207097,118.948065 90.5923871,118.442032 90.1341935,118.04879 C89.3511613,117.369 88.9032258,116.414855 88.9032258,115.433274 C88.9032258,109.199323 91.5566452,103.337274 96.354,98.8317581 L101.206065,103.157419 C97.6670323,106.678306 95.6735484,111.220403 95.7419355,115.796032 Z M119.677419,118.887097 C117.793355,118.887097 116.258065,117.521419 116.258065,115.83871 C116.258065,110.754 114.038903,105.974129 110.004065,102.380081 L97.154129,90.9242419 C91.8336129,86.1809516 88.9032258,79.8707903 88.9032258,73.1612903 C88.9032258,71.4785806 90.4385161,70.1129032 92.3225806,70.1129032 C94.2066452,70.1129032 95.7419355,71.4785806 95.7419355,73.1612903 C95.7419355,78.246 97.9610968,83.025871 101.995935,86.6199194 L114.845871,98.0757581 C120.166387,102.819048 123.096774,109.12921 123.096774,115.83871 C123.096774,117.521419 121.561484,118.887097 119.677419,118.887097 Z M115.646,90.1682419 L110.793935,85.8425806 C114.336387,82.3216935 116.326452,77.7826452 116.258065,73.2039677 C116.234129,71.5456452 117.724968,70.1616774 119.581677,70.1159516 C120.583548,70.0001129 121.407613,70.5549194 121.865806,70.9512097 C122.648839,71.631 123.096774,72.5820968 123.096774,73.5636774 C123.096774,79.8006774 120.443355,85.6596774 115.646,90.1682419 Z" id="Shape" fill="#32A060"></path>
                        <path d="M201.741935,48.7741935 C207.397548,48.7741935 212,44.6710645 212,39.6290323 C212,34.587 207.397548,30.483871 201.741935,30.483871 C196.086323,30.483871 191.483871,34.587 191.483871,39.6290323 C191.483871,40.1198226 191.562516,40.5923226 191.648,41.0648226 L175.368452,48.9814839 C173.392065,46.737871 170.981419,44.8204355 168.256194,43.3084355 L197.351484,17.3727581 C198.685032,17.9428065 200.162194,18.2903226 201.741935,18.2903226 C207.397548,18.2903226 212,14.1871935 212,9.14516129 C212,4.10312903 207.397548,0 201.741935,0 C196.086323,0 191.483871,4.10312903 191.483871,9.14516129 C191.483871,10.5535161 191.870258,11.8704194 192.513097,13.0623387 L161.588452,40.6319516 C160.135226,40.2509032 158.63071,39.9735 157.088581,39.8119355 C156.866323,38.1261774 156.445742,36.4983387 155.857613,34.9345161 L165.996,18.1500968 C166.502065,18.2202097 167.014968,18.2903226 167.548387,18.2903226 C173.204,18.2903226 177.806452,14.1871935 177.806452,9.14516129 C177.806452,4.10312903 173.204,0 167.548387,0 C161.892774,0 157.290323,4.10312903 157.290323,9.14516129 C157.290323,11.5046129 158.322968,13.6354355 159.974516,15.2571774 L152.048452,28.3804839 C147.069871,22.2806613 139.024129,18.2903226 129.935484,18.2903226 C119.650065,18.2903226 110.670839,23.3780806 106,30.8801613 C101.329161,23.3780806 92.3499355,18.2903226 82.0645161,18.2903226 C73.0134839,18.2903226 64.9985161,22.247129 60.0165161,28.3042742 L52.0596774,15.2236452 C53.6872903,13.6049516 54.7096774,11.4863226 54.7096774,9.14516129 C54.7096774,4.10312903 50.1072258,0 44.4516129,0 C38.796,0 34.1935484,4.10312903 34.1935484,9.14516129 C34.1935484,14.1871935 38.796,18.2903226 44.4516129,18.2903226 C45.002129,18.2903226 45.5287097,18.2202097 46.0552903,18.1470484 L56.1970968,34.8125806 C55.5747742,36.4312742 55.1336774,38.1170323 54.9045806,39.8668065 C53.7214839,39.7265806 52.517871,39.6290323 51.2903226,39.6290323 C50.6474839,39.6290323 50.0149032,39.6747581 49.3823226,39.7143871 L19.4869032,13.0623387 C20.1297419,11.8704194 20.516129,10.5535161 20.516129,9.14516129 C20.516129,4.10312903 15.9136774,0 10.2580645,0 C4.60245161,0 0,4.10312903 0,9.14516129 C0,14.1871935 4.60245161,18.2903226 10.2580645,18.2903226 C11.8378065,18.2903226 13.3149677,17.9458548 14.6519355,17.3727581 L41.4699355,41.2812581 C37.9411613,42.4975645 34.7577419,44.3296452 32.1111613,46.6555645 L20.3588387,41.013 C20.4374839,40.5587903 20.516129,40.1045806 20.516129,39.6290323 C20.516129,34.587 15.9136774,30.483871 10.2580645,30.483871 C4.60245161,30.483871 0,34.587 0,39.6290323 C0,44.6710645 4.60245161,48.7741935 10.2580645,48.7741935 C12.9012258,48.7741935 15.2947742,47.8535806 17.113871,46.3812097 L27.8369677,51.5299355 C25.3750323,55.188 23.9354839,59.4496452 23.9354839,64.016129 C23.9354839,69.7501452 26.182,75.0147097 29.9090968,79.1849032 C23.9799355,83.781871 20.516129,90.4121129 20.516129,97.5483871 C20.516129,105.519919 24.9134194,112.912258 32.1248387,117.451306 C31.2563226,119.826 30.7741935,122.353113 30.7741935,124.983871 C30.7741935,128.474274 31.6153548,131.784823 33.1027742,134.790532 L17.0728387,142.585258 C15.2571613,141.134226 12.884129,140.225806 10.2580645,140.225806 C4.60245161,140.225806 0,144.328935 0,149.370968 C0,154.413 4.60245161,158.516129 10.2580645,158.516129 C15.9136774,158.516129 20.516129,154.413 20.516129,149.370968 C20.516129,148.880177 20.4374839,148.407677 20.352,147.935177 L36.6315484,140.018516 C38.6079355,142.262129 41.0185806,144.179565 43.7438065,145.691565 L14.6485161,171.627242 C13.3149677,171.054145 11.8378065,170.709677 10.2580645,170.709677 C4.60245161,170.709677 0,174.812806 0,179.854839 C0,184.896871 4.60245161,189 10.2580645,189 C15.9136774,189 20.516129,184.896871 20.516129,179.854839 C20.516129,178.446484 20.1297419,177.129581 19.4869032,175.937661 L50.4115484,148.368048 C51.8647742,148.749097 53.3692903,149.0265 54.9114194,149.188065 C55.1336774,150.873823 55.5542581,152.501661 56.1423871,154.065484 L46.004,170.849903 C45.4979355,170.77979 44.9850323,170.709677 44.4516129,170.709677 C38.796,170.709677 34.1935484,174.812806 34.1935484,179.854839 C34.1935484,184.896871 38.796,189 44.4516129,189 C50.1072258,189 54.7096774,184.896871 54.7096774,179.854839 C54.7096774,177.495387 53.6770323,175.364565 52.0254839,173.742823 L59.9515484,160.619516 C64.930129,166.719339 72.975871,170.709677 82.0645161,170.709677 C92.3499355,170.709677 101.329161,165.621919 106,158.119839 C110.670839,165.621919 119.650065,170.709677 129.935484,170.709677 C138.935226,170.709677 146.909161,166.798597 151.898,160.799371 L159.930065,173.788548 C158.305871,175.407242 157.290323,177.519774 157.290323,179.854839 C157.290323,184.896871 161.892774,189 167.548387,189 C173.204,189 177.806452,184.896871 177.806452,179.854839 C177.806452,174.812806 173.204,170.709677 167.548387,170.709677 C166.991032,170.709677 166.454194,170.77979 165.920774,170.856 L155.727677,154.370323 C156.387613,152.696758 156.859484,150.946984 157.095419,149.130145 C158.278516,149.273419 159.482129,149.370968 160.709677,149.370968 C161.352516,149.370968 161.981677,149.325242 162.614258,149.285613 L192.509677,175.937661 C191.873677,177.129581 191.483871,178.446484 191.483871,179.854839 C191.483871,184.896871 196.086323,189 201.741935,189 C207.397548,189 212,184.896871 212,179.854839 C212,174.812806 207.397548,170.709677 201.741935,170.709677 C200.162194,170.709677 198.685032,171.054145 197.348065,171.627242 L170.530065,147.718742 C174.058839,146.502435 177.242258,144.670355 179.892258,142.344435 L191.644581,147.987 C191.562516,148.44121 191.483871,148.895419 191.483871,149.370968 C191.483871,154.413 196.086323,158.516129 201.741935,158.516129 C207.397548,158.516129 212,154.413 212,149.370968 C212,144.328935 207.397548,140.225806 201.741935,140.225806 C199.098774,140.225806 196.705226,141.146419 194.886129,142.61879 L184.163032,137.470065 C186.624968,133.812 188.064516,129.550355 188.064516,124.983871 C188.064516,119.249855 185.818,113.98529 182.090903,109.815097 C188.020065,105.218129 191.483871,98.5878871 191.483871,91.4516129 C191.483871,83.4800806 187.086581,76.0877419 179.875161,71.5486935 C180.743677,69.174 181.225806,66.6468871 181.225806,64.016129 C181.225806,60.5257258 180.384645,57.2151774 178.897226,54.2094677 L194.927161,46.4147419 C196.742839,47.8657742 199.115871,48.7741935 201.741935,48.7741935 Z M201.741935,6.09677419 C203.626,6.09677419 205.16129,7.46245161 205.16129,9.14516129 C205.16129,10.827871 203.626,12.1935484 201.741935,12.1935484 C199.857871,12.1935484 198.322581,10.827871 198.322581,9.14516129 C198.322581,7.46245161 199.857871,6.09677419 201.741935,6.09677419 Z M167.548387,6.09677419 C169.432452,6.09677419 170.967742,7.46245161 170.967742,9.14516129 C170.967742,10.827871 169.432452,12.1935484 167.548387,12.1935484 C165.664323,12.1935484 164.129032,10.827871 164.129032,9.14516129 C164.129032,7.46245161 165.664323,6.09677419 167.548387,6.09677419 Z M41.0322581,9.14516129 C41.0322581,7.46245161 42.5675484,6.09677419 44.4516129,6.09677419 C46.3356774,6.09677419 47.8709677,7.46245161 47.8709677,9.14516129 C47.8709677,10.827871 46.3356774,12.1935484 44.4516129,12.1935484 C42.5675484,12.1935484 41.0322581,10.827871 41.0322581,9.14516129 Z M10.2580645,12.1935484 C8.374,12.1935484 6.83870968,10.827871 6.83870968,9.14516129 C6.83870968,7.46245161 8.374,6.09677419 10.2580645,6.09677419 C12.142129,6.09677419 13.6774194,7.46245161 13.6774194,9.14516129 C13.6774194,10.827871 12.142129,12.1935484 10.2580645,12.1935484 Z M10.2580645,152.419355 C8.374,152.419355 6.83870968,151.053677 6.83870968,149.370968 C6.83870968,147.688258 8.374,146.322581 10.2580645,146.322581 C12.142129,146.322581 13.6774194,147.688258 13.6774194,149.370968 C13.6774194,151.053677 12.142129,152.419355 10.2580645,152.419355 Z M10.2580645,182.903226 C8.374,182.903226 6.83870968,181.537548 6.83870968,179.854839 C6.83870968,178.172129 8.374,176.806452 10.2580645,176.806452 C12.142129,176.806452 13.6774194,178.172129 13.6774194,179.854839 C13.6774194,181.537548 12.142129,182.903226 10.2580645,182.903226 Z M44.4516129,182.903226 C42.5675484,182.903226 41.0322581,181.537548 41.0322581,179.854839 C41.0322581,178.172129 42.5675484,176.806452 44.4516129,176.806452 C46.3356774,176.806452 47.8709677,178.172129 47.8709677,179.854839 C47.8709677,181.537548 46.3356774,182.903226 44.4516129,182.903226 Z M170.967742,179.854839 C170.967742,181.537548 169.432452,182.903226 167.548387,182.903226 C165.664323,182.903226 164.129032,181.537548 164.129032,179.854839 C164.129032,178.172129 165.664323,176.806452 167.548387,176.806452 C169.432452,176.806452 170.967742,178.172129 170.967742,179.854839 Z M201.741935,176.806452 C203.626,176.806452 205.16129,178.172129 205.16129,179.854839 C205.16129,181.537548 203.626,182.903226 201.741935,182.903226 C199.857871,182.903226 198.322581,181.537548 198.322581,179.854839 C198.322581,178.172129 199.857871,176.806452 201.741935,176.806452 Z M10.2580645,42.6774194 C8.374,42.6774194 6.83870968,41.3117419 6.83870968,39.6290323 C6.83870968,37.9463226 8.374,36.5806452 10.2580645,36.5806452 C12.142129,36.5806452 13.6774194,37.9463226 13.6774194,39.6290323 C13.6774194,41.3117419 12.142129,42.6774194 10.2580645,42.6774194 Z M201.741935,146.322581 C203.626,146.322581 205.16129,147.688258 205.16129,149.370968 C205.16129,151.053677 203.626,152.419355 201.741935,152.419355 C199.857871,152.419355 198.322581,151.053677 198.322581,149.370968 C198.322581,147.688258 199.857871,146.322581 201.741935,146.322581 Z M184.645161,91.4516129 C184.645161,96.9722419 181.889161,102.099629 177.17729,105.5565 C172.588516,102.459339 166.89529,100.596774 160.709677,100.596774 L160.709677,106.693548 C172.024323,106.693548 181.225806,114.896758 181.225806,124.983871 C181.225806,135.070984 172.024323,143.274194 160.709677,143.274194 C149.395032,143.274194 140.193548,135.070984 140.193548,124.983871 L133.354839,124.983871 C133.354839,135.171581 140.405548,143.911306 150.383226,147.554129 C149.668581,157.065097 140.781677,164.612903 129.935484,164.612903 C118.620839,164.612903 109.419355,156.409694 109.419355,146.322581 L102.580645,146.322581 C102.580645,156.409694 93.3791613,164.612903 82.0645161,164.612903 C70.749871,164.612903 61.5483871,156.409694 61.5483871,146.322581 C61.5483871,136.235468 70.749871,128.032258 82.0645161,128.032258 L82.0645161,121.935484 C68.2332258,121.935484 56.7989032,131.141613 54.9866452,143.036419 C45.1628387,141.682935 37.6129032,134.11379 37.6129032,124.983871 C37.6129032,114.896758 46.8143871,106.693548 58.1290323,106.693548 L58.1290323,100.596774 C48.4761935,100.596774 39.9927742,105.090097 35.1201935,111.842274 C30.2783871,108.403694 27.3548387,103.172661 27.3548387,97.5483871 C27.3548387,92.0277581 30.1108387,86.900371 34.8227097,83.4435 C39.4114839,86.5406613 45.1047097,88.4032258 51.2903226,88.4032258 L51.2903226,82.3064516 C39.9756774,82.3064516 30.7741935,74.1032419 30.7741935,64.016129 C30.7741935,53.9290161 39.9756774,45.7258065 51.2903226,45.7258065 C62.6049677,45.7258065 71.8064516,53.9290161 71.8064516,64.016129 L78.6451613,64.016129 C78.6451613,53.8284194 71.5944516,45.0886935 61.6167742,41.445871 C62.3314194,31.9349032 71.2183226,24.3870968 82.0645161,24.3870968 C93.3791613,24.3870968 102.580645,32.5903065 102.580645,42.6774194 L109.419355,42.6774194 C109.419355,32.5903065 118.620839,24.3870968 129.935484,24.3870968 C141.250129,24.3870968 150.451613,32.5903065 150.451613,42.6774194 C150.451613,52.7645323 141.250129,60.9677419 129.935484,60.9677419 L129.935484,67.0645161 C143.766774,67.0645161 155.201097,57.8583871 157.013355,45.9635806 C166.837161,47.3170645 174.387097,54.8862097 174.387097,64.016129 C174.387097,74.1032419 165.185613,82.3064516 153.870968,82.3064516 L153.870968,88.4032258 C163.523806,88.4032258 172.007226,83.9099032 176.879806,77.1577258 C181.721613,80.5963065 184.645161,85.8273387 184.645161,91.4516129 Z M201.741935,36.5806452 C203.626,36.5806452 205.16129,37.9463226 205.16129,39.6290323 C205.16129,41.3117419 203.626,42.6774194 201.741935,42.6774194 C199.857871,42.6774194 198.322581,41.3117419 198.322581,39.6290323 C198.322581,37.9463226 199.857871,36.5806452 201.741935,36.5806452 Z" id="Shape" fill="#32A060"></path>
                        <path d="M160.709677,137.177419 C168.252774,137.177419 174.387097,131.708613 174.387097,124.983871 L167.548387,124.983871 C167.548387,128.346242 164.481226,131.080645 160.709677,131.080645 L160.709677,137.177419 Z" id="Path" fill="#000000"></path>
                        <path d="M75.2258065,146.322581 L68.3870968,146.322581 C68.3870968,153.047323 74.5214194,158.516129 82.0645161,158.516129 L82.0645161,152.419355 C78.2929677,152.419355 75.2258065,149.684952 75.2258065,146.322581 Z" id="Path" fill="#000000"></path>
                        <path d="M51.2903226,51.8225806 C43.7472258,51.8225806 37.6129032,57.2913871 37.6129032,64.016129 L44.4516129,64.016129 C44.4516129,60.6537581 47.5187742,57.9193548 51.2903226,57.9193548 C55.061871,57.9193548 58.1290323,60.6537581 58.1290323,64.016129 L64.9677419,64.016129 C64.9677419,57.2913871 58.8334194,51.8225806 51.2903226,51.8225806 Z" id="Path" fill="#000000"></path>
                        <path d="M129.935484,36.5806452 L129.935484,30.483871 C122.392387,30.483871 116.258065,35.9526774 116.258065,42.6774194 L123.096774,42.6774194 C123.096774,39.3150484 126.163935,36.5806452 129.935484,36.5806452 Z" id="Path" fill="#000000"></path>
                        <rect id="Rectangle" fill="#000000" x="140.193548" y="88.4032258" width="6.83870968" height="6.09677419"></rect>
                        <rect id="Rectangle" fill="#000000" x="147.032258" y="118.887097" width="6.83870968" height="6.09677419"></rect>
                        <rect id="Rectangle" fill="#000000" x="64.9677419" y="88.4032258" width="6.83870968" height="6.09677419"></rect>
                        <rect id="Rectangle" fill="#000000" x="102.580645" y="48.7741935" width="6.83870968" height="6.09677419"></rect>
                        <rect id="Rectangle" fill="#000000" x="112.83871" y="134.129032" width="6.83870968" height="6.09677419"></rect>
                    </g>
                </g>
            </g>
        </g>
    </g>
</svg>